<svg xmlns="http://www.w3.org/2000/svg" width="151" height="152" fill="none">
  <path fill="#231E1B" d="M.02344 75.673c0 41.654 33.76706 75.421 75.42086 75.421 41.6537 0 75.4207-33.767 75.4207-75.421 0-41.6538-33.767-75.42086-75.4207-75.42086C33.7905.25214.02344 34.0192.02344 75.673Z"/>
  <path fill="#fff" fill-rule="evenodd" d="M75.329 38.8676c-20.758 0-37.5951 16.8371-37.5951 37.5951 0 16.6065 10.8403 30.6763 25.6016 35.7503 1.8451.23 2.5371-.923 2.5371-1.845v-6.459c-10.3791 2.307-12.6855-5.0737-12.6855-5.0737-1.6145-4.3822-4.1516-5.5355-4.1516-5.5355-3.4597-2.3064.2306-2.3064.2306-2.3064 3.6903.2306 5.7662 3.9209 5.7662 3.9209 3.4596 5.7657 8.7645 4.1517 10.8403 3.2291.2306-2.5371 1.3838-4.1516 2.3064-5.0742-8.3032-.9226-17.0677-4.1516-17.0677-18.6823 0-4.1516 1.3839-7.3806 3.921-10.1483-.2307-.692-1.6146-4.6129.4612-9.6871 0 0 3.2291-.9226 10.3791 3.9209 2.9983-.9225 6.2274-1.1532 9.4564-1.1532s6.4581.4613 9.4564 1.1532c7.15-4.8435 10.3791-3.9209 10.3791-3.9209 2.0758 5.0742.6919 8.9951.4613 9.9177 2.3064 2.5371 3.9209 5.9968 3.9209 10.1484 0 14.5306-8.7645 17.529-17.0677 18.4516 1.3839 1.1532 2.5371 3.4597 2.5371 6.9193v10.3795c0 .922.6919 2.075 2.5371 1.845 14.9918-5.074 25.6018-19.1438 25.6018-35.7503-.231-20.758-17.068-37.5951-37.826-37.5951Z" clip-rule="evenodd"/>
</svg>
