<svg width="50" height="50" viewBox="0 0 28 28" fill="none" xmlns="http://www.w3.org/2000/svg">
  <g clip-path="url(#clip0_83_18)">
  <path d="M21.4717 0.366699H7.12793C3.633 0.366699 0.799805 3.1999 0.799805 6.69482V21.0386C0.799805 24.5335 3.633 27.3667 7.12793 27.3667H21.4717C24.9666 27.3667 27.7998 24.5335 27.7998 21.0386V6.69482C27.7998 3.1999 24.9666 0.366699 21.4717 0.366699Z" fill="#0277BD"/>
  <path d="M6.46899 11.1931L6.77093 14.562H14.3099V11.1931H6.46899Z" fill="#EBEBEB"/>
  <path d="M14.3098 4.37451H14.2982H5.8623L6.16854 7.74343H14.3098V4.37451Z" fill="#EBEBEB"/>
  <path d="M14.3097 23.4477V19.9426L14.295 19.9465L10.5431 18.9335L10.3032 16.2466H8.48006H6.92139L7.39336 21.5363L14.2942 23.452L14.3097 23.4477Z" fill="#EBEBEB"/>
  <path d="M18.4467 14.5621L18.0557 18.9312L14.2983 19.9454V23.4502L21.2047 21.5362L21.2554 20.967L22.047 12.0979L22.1292 11.1932L22.7374 4.37451H14.2983V7.74343H19.0454L18.7389 11.1932H14.2983V14.5621H18.4467Z" fill="white"/>
  </g>
  <defs>
  <clipPath id="clip0_83_18">
  <rect width="27" height="27" fill="white" transform="translate(0.799805 0.366699)"/>
  </clipPath>
  </defs>
</svg>
