<svg width="50" height="50" viewBox="0 0 28 28" fill="none" xmlns="http://www.w3.org/2000/svg">
<g clip-path="url(#clip0_83_13)">
<path d="M21.0898 0.366699H6.74609C3.25117 0.366699 0.417969 3.1999 0.417969 6.69482V21.0386C0.417969 24.5335 3.25117 27.3667 6.74609 27.3667H21.0898C24.5848 27.3667 27.418 24.5335 27.418 21.0386V6.69482C27.418 3.1999 24.5848 0.366699 21.0898 0.366699Z" fill="#E14E1D"/>
<path d="M5.48047 4.37451L6.38853 14.5621H18.065L17.6732 18.9316L13.9136 19.9481L10.1612 18.9331L9.91028 16.1274H6.52871L7.01225 21.536L13.9128 23.4525L20.8221 21.536L21.7484 11.1936H9.46973L9.16143 7.74369H22.0434H22.0537L22.3555 4.37451H5.48047Z" fill="white"/>
<path d="M13.918 4.37451H5.48047L6.38853 14.5621H13.918V11.1936H9.46973L9.16143 7.74369H13.918V4.37451Z" fill="#EBEBEB"/>
<path d="M13.9181 19.9467L13.9138 19.9482L10.1613 18.9331L9.91039 16.1274H6.52881L7.01236 21.536L13.9129 23.4526L13.9181 23.4511V19.9467Z" fill="#EBEBEB"/>
</g>
<defs>
<clipPath id="clip0_83_13">
<rect width="27" height="27" fill="white" transform="translate(0.417969 0.366699)"/>
</clipPath>
</defs>
</svg>
