<svg width="50" height="50" viewBox="0 0 28 28" fill="none" xmlns="http://www.w3.org/2000/svg">
<g clip-path="url(#clip0_83_50)">
<path d="M21.4697 0.476807H7.12598C3.63105 0.476807 0.797852 3.31 0.797852 6.80493V21.1487C0.797852 24.6436 3.63105 27.4768 7.12598 27.4768H21.4697C24.9647 27.4768 27.7979 24.6436 27.7979 21.1487V6.80493C27.7979 3.31 24.9647 0.476807 21.4697 0.476807Z" fill="#F0DB4F"/>
<path d="M7.89701 23.0401L9.96325 21.7896C10.3619 22.4964 10.7245 23.0944 11.5943 23.0944C12.428 23.0944 12.9536 22.7683 12.9536 21.4997V12.8726H15.491V21.5356C15.491 24.1635 13.9505 25.3597 11.703 25.3597C9.67328 25.3597 8.49504 24.3085 7.89697 23.0398" fill="#323330"/>
<path d="M16.8694 22.768L18.9353 21.5719C19.4792 22.4601 20.1861 23.1125 21.4365 23.1125C22.4879 23.1125 23.1583 22.5868 23.1583 21.8618C23.1583 20.9919 22.4696 20.6838 21.3096 20.1764L20.6754 19.9044C18.8448 19.1252 17.6304 18.1465 17.6304 16.0804C17.6304 14.1773 19.0804 12.7273 21.346 12.7273C22.959 12.7273 24.119 13.2892 24.9526 14.7573L22.9771 16.0259C22.542 15.2466 22.071 14.9386 21.346 14.9386C20.6029 14.9386 20.1316 15.4098 20.1316 16.0259C20.1316 16.7871 20.6029 17.0953 21.6903 17.5666L22.3245 17.8384C24.4813 18.7628 25.6956 19.7051 25.6956 21.8256C25.6956 24.1094 23.9014 25.3598 21.4909 25.3598C19.1349 25.3598 17.6124 24.2362 16.8694 22.768Z" fill="#323330"/>
</g>
<defs>
<clipPath id="clip0_83_50">
<rect width="27" height="27" fill="white" transform="translate(0.797852 0.476807)"/>
</clipPath>
</defs>
</svg>
