<svg width="11" height="33" viewBox="0 0 11 33" fill="none" xmlns="http://www.w3.org/2000/svg">
<g clip-path="url(#clip0_83_6)">
<g filter="url(#filter0_d_83_6)">
<mask id="path-1-inside-1_83_6" fill="white">
<path fill-rule="evenodd" clip-rule="evenodd" d="M6.69328 0C3.5425 0 0.988281 2.55422 0.988281 5.705V46H17.9883V39.4395C16.7764 40.572 15.1487 41.2651 13.3592 41.2651H3.14062V6.14023C3.14062 4.00007 4.87556 2.26514 7.01572 2.26514H17.9883V0H6.69328Z"/>
</mask>
<path fill-rule="evenodd" clip-rule="evenodd" d="M6.69328 0C3.5425 0 0.988281 2.55422 0.988281 5.705V46H17.9883V39.4395C16.7764 40.572 15.1487 41.2651 13.3592 41.2651H3.14062V6.14023C3.14062 4.00007 4.87556 2.26514 7.01572 2.26514H17.9883V0H6.69328Z" fill="white"/>
<path d="M0.988281 46H0.934461V46.0538H0.988281V46ZM17.9883 46V46.0538H18.0421V46H17.9883ZM17.9883 39.4395H18.0421V39.3155L17.9515 39.4002L17.9883 39.4395ZM3.14062 41.2651H3.0868V41.319H3.14062V41.2651ZM17.9883 2.26514V2.31896H18.0421V2.26514H17.9883ZM17.9883 0H18.0421V-0.0538207H17.9883V0ZM0.934461 5.705V5.81217H1.0421V5.705H0.934461ZM0.934461 6.0265V6.24084H1.0421V6.0265H0.934461ZM0.934461 6.45517V6.66951H1.0421V6.45517H0.934461ZM0.934461 6.88384V7.09818H1.0421V6.88384H0.934461ZM0.934461 7.31251V7.52685H1.0421V7.31251H0.934461ZM0.934461 7.74118V7.95552H1.0421V7.74118H0.934461ZM0.934461 8.16985V8.38419H1.0421V8.16985H0.934461ZM0.934461 8.59852V8.81286H1.0421V8.59852H0.934461ZM0.934461 9.02719V9.24153H1.0421V9.02719H0.934461ZM0.934461 9.45586V9.6702H1.0421V9.45586H0.934461ZM0.934461 9.88453V10.0989H1.0421V9.88453H0.934461ZM0.934461 10.3132V10.5275H1.0421V10.3132H0.934461ZM0.934461 10.7419V10.9562H1.0421V10.7419H0.934461ZM0.934461 11.1705V11.3849H1.0421V11.1705H0.934461ZM0.934461 11.5992V11.8135H1.0421V11.5992H0.934461ZM0.934461 12.0279V12.2422H1.0421V12.0279H0.934461ZM0.934461 12.4566V12.6709H1.0421V12.4566H0.934461ZM0.934461 12.8852V13.0996H1.0421V12.8852H0.934461ZM0.934461 13.3139V13.5282H1.0421V13.3139H0.934461ZM0.934461 13.7426V13.9569H1.0421V13.7426H0.934461ZM0.934461 14.1712V14.3856H1.0421V14.1712H0.934461ZM0.934461 14.5999V14.8142H1.0421V14.5999H0.934461ZM0.934461 15.0286V15.2429H1.0421V15.0286H0.934461ZM0.934461 15.4572V15.6716H1.0421V15.4572H0.934461ZM0.934461 15.8859V16.1003H1.0421V15.8859H0.934461ZM0.934461 16.3146V16.5289H1.0421V16.3146H0.934461ZM0.934461 16.7433V16.9576H1.0421V16.7433H0.934461ZM0.934461 17.1719V17.3863H1.0421V17.1719H0.934461ZM0.934461 17.6006V17.8149H1.0421V17.6006H0.934461ZM0.934461 18.0293V18.2436H1.0421V18.0293H0.934461ZM0.934461 18.4579V18.6723H1.0421V18.4579H0.934461ZM0.934461 18.8866V19.1009H1.0421V18.8866H0.934461ZM0.934461 19.3153V19.5296H1.0421V19.3153H0.934461ZM0.934461 19.744V19.9583H1.0421V19.744H0.934461ZM0.934461 20.1726V20.387H1.0421V20.1726H0.934461ZM0.934461 20.6013V20.8156H1.0421V20.6013H0.934461ZM0.934461 21.03V21.2443H1.0421V21.03H0.934461ZM0.934461 21.4586V21.673H1.0421V21.4586H0.934461ZM0.934461 21.8873V22.1016H1.0421V21.8873H0.934461ZM0.934461 22.316V22.5303H1.0421V22.316H0.934461ZM0.934461 22.7446V22.959H1.0421V22.7446H0.934461ZM0.934461 23.1733V23.3877H1.0421V23.1733H0.934461ZM0.934461 23.602V23.8163H1.0421V23.602H0.934461ZM0.934461 24.0307V24.245H1.0421V24.0307H0.934461ZM0.934461 24.4593V24.6737H1.0421V24.4593H0.934461ZM0.934461 24.888V25.1023H1.0421V24.888H0.934461ZM0.934461 25.3167V25.531H1.0421V25.3167H0.934461ZM0.934461 25.7453V25.9597H1.0421V25.7453H0.934461ZM0.934461 26.174V26.3883H1.0421V26.174H0.934461ZM0.934461 26.6027V26.817H1.0421V26.6027H0.934461ZM0.934461 27.0313V27.2457H1.0421V27.0313H0.934461ZM0.934461 27.46V27.6743H1.0421V27.46H0.934461ZM0.934461 27.8887V28.103H1.0421V27.8887H0.934461ZM0.934461 28.3173V28.5317H1.0421V28.3173H0.934461ZM0.934461 28.746V28.9603H1.0421V28.746H0.934461ZM0.934461 29.1747V29.389H1.0421V29.1747H0.934461ZM0.934461 29.6034V29.8177H1.0421V29.6034H0.934461ZM0.934461 30.032V30.2464H1.0421V30.032H0.934461ZM0.934461 30.4607V30.675H1.0421V30.4607H0.934461ZM0.934461 30.8894V31.1037H1.0421V30.8894H0.934461ZM0.934461 31.318V31.5324H1.0421V31.318H0.934461ZM0.934461 31.7467V31.961H1.0421V31.7467H0.934461ZM0.934461 32.1754V32.3897H1.0421V32.1754H0.934461ZM0.934461 32.604V32.8184H1.0421V32.604H0.934461ZM0.934461 33.0327V33.247H1.0421V33.0327H0.934461ZM0.934461 33.4614V33.6757H1.0421V33.4614H0.934461ZM0.934461 33.89V34.1044H1.0421V33.89H0.934461ZM0.934461 34.3187V34.533H1.0421V34.3187H0.934461ZM0.934461 34.7474V34.9617H1.0421V34.7474H0.934461ZM0.934461 35.176V35.3904H1.0421V35.176H0.934461ZM0.934461 35.6047V35.8191H1.0421V35.6047H0.934461ZM0.934461 36.0334V36.2477H1.0421V36.0334H0.934461ZM0.934461 36.4621V36.6764H1.0421V36.4621H0.934461ZM0.934461 36.8907V37.1051H1.0421V36.8907H0.934461ZM0.934461 37.3194V37.5337H1.0421V37.3194H0.934461ZM0.934461 37.7481V37.9624H1.0421V37.7481H0.934461ZM0.934461 38.1767V38.3911H1.0421V38.1767H0.934461ZM0.934461 38.6054V38.8197H1.0421V38.6054H0.934461ZM0.934461 39.0341V39.2484H1.0421V39.0341H0.934461ZM0.934461 39.4628V39.6771H1.0421V39.4628H0.934461ZM0.934461 39.8914V40.1058H1.0421V39.8914H0.934461ZM0.934461 40.3201V40.5344H1.0421V40.3201H0.934461ZM0.934461 40.7488V40.9631H1.0421V40.7488H0.934461ZM0.934461 41.1774V41.3918H1.0421V41.1774H0.934461ZM0.934461 41.6061V41.8205H1.0421V41.6061H0.934461ZM0.934461 42.0348V42.2491H1.0421V42.0348H0.934461ZM0.934461 42.4635V42.6778H1.0421V42.4635H0.934461ZM0.934461 42.8921V43.1065H1.0421V42.8921H0.934461ZM0.934461 43.3208V43.5351H1.0421V43.3208H0.934461ZM0.934461 43.7495V43.9638H1.0421V43.7495H0.934461ZM0.934461 44.1782V44.3925H1.0421V44.1782H0.934461ZM0.934461 44.6068V44.8212H1.0421V44.6068H0.934461ZM0.934461 45.0355V45.2498H1.0421V45.0355H0.934461ZM0.934461 45.4642V45.6785H1.0421V45.4642H0.934461ZM0.934461 45.8928V46H1.0421V45.8928H0.934461ZM0.988281 46.0538H1.09726V45.9462H0.988281V46.0538ZM1.3152 46.0538H1.53315V45.9462H1.3152V46.0538ZM1.7511 46.0538H1.96905V45.9462H1.7511V46.0538ZM2.187 46.0538H2.40495V45.9462H2.187V46.0538ZM2.6229 46.0538H2.84085V45.9462H2.6229V46.0538ZM3.05879 46.0538H3.27674V45.9462H3.05879V46.0538ZM3.49469 46.0538H3.71264V45.9462H3.49469V46.0538ZM3.93059 46.0538H4.14854V45.9462H3.93059V46.0538ZM4.36649 46.0538H4.58443V45.9462H4.36649V46.0538ZM4.80238 46.0538H5.02033V45.9462H4.80238V46.0538ZM5.23828 46.0538H5.45623V45.9462H5.23828V46.0538ZM5.67418 46.0538H5.89213V45.9462H5.67418V46.0538ZM6.11008 46.0538H6.32803V45.9462H6.11008V46.0538ZM6.54597 46.0538H6.76392V45.9462H6.54597V46.0538ZM6.98187 46.0538H7.19982V45.9462H6.98187V46.0538ZM7.41777 46.0538H7.63572V45.9462H7.41777V46.0538ZM7.85367 46.0538H8.07162V45.9462H7.85367V46.0538ZM8.28957 46.0538H8.50751V45.9462H8.28957V46.0538ZM8.72546 46.0538H8.94341V45.9462H8.72546V46.0538ZM9.16136 46.0538H9.37931V45.9462H9.16136V46.0538ZM9.59726 46.0538H9.81521V45.9462H9.59726V46.0538ZM10.0332 46.0538H10.2511V45.9462H10.0332V46.0538ZM10.4691 46.0538H10.687V45.9462H10.4691V46.0538ZM10.905 46.0538H11.1229V45.9462H10.905V46.0538ZM11.3409 46.0538H11.5588V45.9462H11.3409V46.0538ZM11.7767 46.0538H11.9947V45.9462H11.7767V46.0538ZM12.2126 46.0538H12.4306V45.9462H12.2126V46.0538ZM12.6485 46.0538H12.8665V45.9462H12.6485V46.0538ZM13.0844 46.0538H13.3024V45.9462H13.0844V46.0538ZM13.5203 46.0538H13.7383V45.9462H13.5203V46.0538ZM13.9562 46.0538H14.1742V45.9462H13.9562V46.0538ZM14.3921 46.0538H14.6101V45.9462H14.3921V46.0538ZM14.828 46.0538H15.046V45.9462H14.828V46.0538ZM15.2639 46.0538H15.4819V45.9462H15.2639V46.0538ZM15.6998 46.0538H15.9178V45.9462H15.6998V46.0538ZM16.1357 46.0538H16.3537V45.9462H16.1357V46.0538ZM16.5716 46.0538H16.7896V45.9462H16.5716V46.0538ZM17.0075 46.0538H17.2255V45.9462H17.0075V46.0538ZM17.4434 46.0538H17.6614V45.9462H17.4434V46.0538ZM17.8793 46.0538H17.9883V45.9462H17.8793V46.0538ZM18.0421 46V45.8907H17.9345V46H18.0421ZM18.0421 45.672V45.4533H17.9345V45.672H18.0421ZM18.0421 45.2346V45.0159H17.9345V45.2346H18.0421ZM18.0421 44.7972V44.5786H17.9345V44.7972H18.0421ZM18.0421 44.3599V44.1412H17.9345V44.3599H18.0421ZM18.0421 43.9225V43.7038H17.9345V43.9225H18.0421ZM18.0421 43.4851V43.2665H17.9345V43.4851H18.0421ZM18.0421 43.0478V42.8291H17.9345V43.0478H18.0421ZM18.0421 42.6104V42.3917H17.9345V42.6104H18.0421ZM18.0421 42.173V41.9544H17.9345V42.173H18.0421ZM18.0421 41.7357V41.517H17.9345V41.7357H18.0421ZM18.0421 41.2983V41.0796H17.9345V41.2983H18.0421ZM18.0421 40.8609V40.6423H17.9345V40.8609H18.0421ZM18.0421 40.4236V40.2049H17.9345V40.4236H18.0421ZM18.0421 39.9862V39.7675H17.9345V39.9862H18.0421ZM18.0421 39.5488V39.4395H17.9345V39.5488H18.0421ZM17.9515 39.4002C17.9259 39.4241 17.9 39.4479 17.874 39.4715L17.9463 39.5513C17.9727 39.5273 17.999 39.5032 18.025 39.4788L17.9515 39.4002ZM17.7157 39.6104C17.6623 39.6559 17.6081 39.7006 17.5532 39.7444L17.6203 39.8285C17.6761 39.784 17.7311 39.7386 17.7855 39.6924L17.7157 39.6104ZM17.3865 39.8732C17.3303 39.9153 17.2735 39.9565 17.2159 39.9968L17.2777 40.0849C17.3362 40.044 17.3939 40.0021 17.451 39.9594L17.3865 39.8732ZM17.0416 40.115C16.9829 40.1534 16.9236 40.191 16.8636 40.2276L16.9198 40.3195C16.9807 40.2822 17.041 40.2441 17.1006 40.205L17.0416 40.115ZM16.6822 40.3347C16.6213 40.3694 16.5597 40.4032 16.4976 40.436L16.5479 40.5312C16.611 40.4978 16.6735 40.4635 16.7355 40.4282L16.6822 40.3347ZM16.3098 40.5315C16.2468 40.5623 16.1833 40.5921 16.1192 40.621L16.1634 40.7191C16.2285 40.6898 16.2931 40.6595 16.3571 40.6282L16.3098 40.5315ZM15.9258 40.7044C15.861 40.7312 15.7957 40.757 15.7299 40.7818L15.7678 40.8825C15.8347 40.8573 15.901 40.8311 15.9669 40.8039L15.9258 40.7044ZM15.5316 40.8529C15.4653 40.8755 15.3985 40.8971 15.3313 40.9177L15.3628 41.0206C15.4311 40.9997 15.499 40.9777 15.5664 40.9547L15.5316 40.8529ZM15.1289 40.9762C15.0613 40.9945 14.9933 41.0119 14.9248 41.0282L14.9498 41.1329C15.0193 41.1163 15.0884 41.0987 15.1571 41.08L15.1289 40.9762ZM14.7192 41.0738C14.6506 41.0879 14.5816 41.1009 14.5122 41.1129L14.5305 41.219C14.601 41.2068 14.6711 41.1935 14.7409 41.1792L14.7192 41.0738ZM14.3042 41.1455C14.2348 41.1552 14.1652 41.1639 14.0952 41.1715L14.1068 41.2785C14.1779 41.2708 14.2487 41.262 14.3191 41.2521L14.3042 41.1455ZM13.8854 41.191C13.8156 41.1964 13.7455 41.2008 13.6751 41.204L13.6801 41.3116C13.7516 41.3083 13.8228 41.3038 13.8937 41.2984L13.8854 41.191ZM13.4647 41.2105C13.4296 41.211 13.3944 41.2113 13.3592 41.2113V41.319C13.395 41.319 13.4307 41.3187 13.4663 41.3181L13.4647 41.2105ZM13.3592 41.2113H13.2528V41.319H13.3592V41.2113ZM13.0399 41.2113H12.827V41.319H13.0399V41.2113ZM12.6141 41.2113H12.4012V41.319H12.6141V41.2113ZM12.1883 41.2113H11.9754V41.319H12.1883V41.2113ZM11.7626 41.2113H11.5497V41.319H11.7626V41.2113ZM11.3368 41.2113H11.1239V41.319H11.3368V41.2113ZM10.911 41.2113H10.6981V41.319H10.911V41.2113ZM10.4852 41.2113H10.2723V41.319H10.4852V41.2113ZM10.0595 41.2113H9.84657V41.319H10.0595V41.2113ZM9.63369 41.2113H9.4208V41.319H9.63369V41.2113ZM9.20791 41.2113H8.99502V41.319H9.20791V41.2113ZM8.78214 41.2113H8.56925V41.319H8.78214V41.2113ZM8.35636 41.2113H8.14348V41.319H8.35636V41.2113ZM7.93059 41.2113H7.7177V41.319H7.93059V41.2113ZM7.50481 41.2113H7.29193V41.319H7.50481V41.2113ZM7.07904 41.2113H6.86615V41.319H7.07904V41.2113ZM6.65326 41.2113H6.44038V41.319H6.65326V41.2113ZM6.22749 41.2113H6.0146V41.319H6.22749V41.2113ZM5.80172 41.2113H5.58883V41.319H5.80172V41.2113ZM5.37594 41.2113H5.16305V41.319H5.37594V41.2113ZM4.95017 41.2113H4.73728V41.319H4.95017V41.2113ZM4.52439 41.2113H4.31151V41.319H4.52439V41.2113ZM4.09862 41.2113H3.88573V41.319H4.09862V41.2113ZM3.67285 41.2113H3.45996V41.319H3.67285V41.2113ZM3.24707 41.2113H3.14062V41.319H3.24707V41.2113ZM3.19445 41.2651V41.158H3.0868V41.2651H3.19445ZM3.19445 40.9439V40.7297H3.0868V40.9439H3.19445ZM3.19445 40.5155V40.3013H3.0868V40.5155H3.19445ZM3.19445 40.0872V39.873H3.0868V40.0872H3.19445ZM3.19445 39.6588V39.4446H3.0868V39.6588H3.19445ZM3.19445 39.2305V39.0163H3.0868V39.2305H3.19445ZM3.19445 38.8021V38.5879H3.0868V38.8021H3.19445ZM3.19445 38.3738V38.1596H3.0868V38.3738H3.19445ZM3.19445 37.9454V37.7312H3.0868V37.9454H3.19445ZM3.19445 37.5171V37.3029H3.0868V37.5171H3.19445ZM3.19445 37.0887V36.8745H3.0868V37.0887H3.19445ZM3.19445 36.6603V36.4462H3.0868V36.6603H3.19445ZM3.19445 36.232V36.0178H3.0868V36.232H3.19445ZM3.19445 35.8036V35.5895H3.0868V35.8036H3.19445ZM3.19445 35.3753V35.1611H3.0868V35.3753H3.19445ZM3.19445 34.9469V34.7328H3.0868V34.9469H3.19445ZM3.19445 34.5186V34.3044H3.0868V34.5186H3.19445ZM3.19445 34.0902V33.8761H3.0868V34.0902H3.19445ZM3.19445 33.6619V33.4477H3.0868V33.6619H3.19445ZM3.19445 33.2335V33.0194H3.0868V33.2335H3.19445ZM3.19445 32.8052V32.591H3.0868V32.8052H3.19445ZM3.19445 32.3768V32.1626H3.0868V32.3768H3.19445ZM3.19445 31.9485V31.7343H3.0868V31.9485H3.19445ZM3.19445 31.5201V31.3059H3.0868V31.5201H3.19445ZM3.19445 31.0918V30.8776H3.0868V31.0918H3.19445ZM3.19445 30.6634V30.4492H3.0868V30.6634H3.19445ZM3.19445 30.2351V30.0209H3.0868V30.2351H3.19445ZM3.19445 29.8067V29.5925H3.0868V29.8067H3.19445ZM3.19445 29.3784V29.1642H3.0868V29.3784H3.19445ZM3.19445 28.95V28.7358H3.0868V28.95H3.19445ZM3.19445 28.5217V28.3075H3.0868V28.5217H3.19445ZM3.19445 28.0933V27.8791H3.0868V28.0933H3.19445ZM3.19445 27.6649V27.4508H3.0868V27.6649H3.19445ZM3.19445 27.2366V27.0224H3.0868V27.2366H3.19445ZM3.19445 26.8082V26.5941H3.0868V26.8082H3.19445ZM3.19445 26.3799V26.1657H3.0868V26.3799H3.19445ZM3.19445 25.9515V25.7374H3.0868V25.9515H3.19445ZM3.19445 25.5232V25.309H3.0868V25.5232H3.19445ZM3.19445 25.0948V24.8807H3.0868V25.0948H3.19445ZM3.19445 24.6665V24.4523H3.0868V24.6665H3.19445ZM3.19445 24.2381V24.024H3.0868V24.2381H3.19445ZM3.19445 23.8098V23.5956H3.0868V23.8098H3.19445ZM3.19445 23.3814V23.1672H3.0868V23.3814H3.19445ZM3.19445 22.9531V22.7389H3.0868V22.9531H3.19445ZM3.19445 22.5247V22.3105H3.0868V22.5247H3.19445ZM3.19445 22.0964V21.8822H3.0868V22.0964H3.19445ZM3.19445 21.668V21.4538H3.0868V21.668H3.19445ZM3.19445 21.2397V21.0255H3.0868V21.2397H3.19445ZM3.19445 20.8113V20.5971H3.0868V20.8113H3.19445ZM3.19445 20.383V20.1688H3.0868V20.383H3.19445ZM3.19445 19.9546V19.7404H3.0868V19.9546H3.19445ZM3.19445 19.5263V19.3121H3.0868V19.5263H3.19445ZM3.19445 19.0979V18.8837H3.0868V19.0979H3.19445ZM3.19445 18.6695V18.4554H3.0868V18.6695H3.19445ZM3.19445 18.2412V18.027H3.0868V18.2412H3.19445ZM3.19445 17.8128V17.5987H3.0868V17.8128H3.19445ZM3.19445 17.3845V17.1703H3.0868V17.3845H3.19445ZM3.19445 16.9561V16.742H3.0868V16.9561H3.19445ZM3.19445 16.5278V16.3136H3.0868V16.5278H3.19445ZM3.19445 16.0994V15.8853H3.0868V16.0994H3.19445ZM3.19445 15.6711V15.4569H3.0868V15.6711H3.19445ZM3.19445 15.2427V15.0286H3.0868V15.2427H3.19445ZM3.19445 14.8144V14.6002H3.0868V14.8144H3.19445ZM3.19445 14.386V14.1718H3.0868V14.386H3.19445ZM3.19445 13.9577V13.7435H3.0868V13.9577H3.19445ZM3.19445 13.5293V13.3151H3.0868V13.5293H3.19445ZM3.19445 13.101V12.8868H3.0868V13.101H3.19445ZM3.19445 12.6726V12.4584H3.0868V12.6726H3.19445ZM3.19445 12.2443V12.0301H3.0868V12.2443H3.19445ZM3.19445 11.8159V11.6017H3.0868V11.8159H3.19445ZM3.19445 11.3876V11.1734H3.0868V11.3876H3.19445ZM3.19445 10.9592V10.745H3.0868V10.9592H3.19445ZM3.19445 10.5309V10.3167H3.0868V10.5309H3.19445ZM3.19445 10.1025V9.88832H3.0868V10.1025H3.19445ZM3.19445 9.67415V9.45997H3.0868V9.67415H3.19445ZM3.19445 9.2458V9.03162H3.0868V9.2458H3.19445ZM3.19445 8.81744V8.60327H3.0868V8.81744H3.19445ZM3.19445 8.38909V8.17491H3.0868V8.38909H3.19445ZM3.19445 7.96074V7.74656H3.0868V7.96074H3.19445ZM3.19445 7.53239V7.31821H3.0868V7.53239H3.19445ZM3.19445 7.10403V6.88986H3.0868V7.10403H3.19445ZM3.19445 6.67568V6.4615H3.0868V6.67568H3.19445ZM3.19445 6.24733V6.14023H3.0868V6.24733H3.19445ZM3.19445 6.14023C3.19445 6.10428 3.19494 6.06845 3.19593 6.03274L3.08833 6.02977C3.08731 6.06646 3.0868 6.10329 3.0868 6.14023H3.19445ZM3.20778 5.81871C3.21374 5.74712 3.22167 5.67611 3.23153 5.60571L3.12492 5.59079C3.11479 5.66317 3.10664 5.73618 3.10051 5.80977L3.20778 5.81871ZM3.26718 5.3944C3.2811 5.32404 3.29695 5.25437 3.31468 5.18546L3.21043 5.15865C3.1922 5.22952 3.1759 5.30116 3.16159 5.37351L3.26718 5.3944ZM3.37394 4.9794C3.39569 4.9111 3.41931 4.84363 3.44474 4.77705L3.34419 4.73865C3.31803 4.80711 3.29374 4.8765 3.27137 4.94674L3.37394 4.9794ZM3.52685 4.57905C3.55614 4.51371 3.5872 4.44934 3.61999 4.386L3.5244 4.33651C3.49068 4.40164 3.45874 4.46783 3.42862 4.53503L3.52685 4.57905ZM3.72384 4.19849C3.76025 4.1369 3.79834 4.07642 3.83805 4.01711L3.7486 3.95722C3.70778 4.0182 3.66861 4.08039 3.63118 4.14372L3.72384 4.19849ZM3.96225 3.84237C4.00529 3.78526 4.04991 3.7294 4.09602 3.67484L4.01382 3.60535C3.96641 3.66144 3.92054 3.71887 3.87629 3.77758L3.96225 3.84237ZM4.23893 3.51503C4.28804 3.4631 4.33859 3.41255 4.39052 3.36344L4.31656 3.28524C4.26318 3.33572 4.21121 3.38769 4.16073 3.44107L4.23893 3.51503ZM4.55033 3.22053C4.60489 3.17442 4.66075 3.12981 4.71786 3.08676L4.65307 3.0008C4.59436 3.04505 4.53693 3.09092 4.48084 3.13833L4.55033 3.22053ZM4.8926 2.96256C4.95191 2.92285 5.01239 2.88476 5.07398 2.84835L5.01921 2.75569C4.95588 2.79313 4.89369 2.83229 4.83271 2.87311L4.8926 2.96256ZM5.26149 2.7445C5.32482 2.71171 5.3892 2.68065 5.45454 2.65136L5.41052 2.55314C5.34332 2.58325 5.27713 2.6152 5.212 2.64891L5.26149 2.7445ZM5.65254 2.56925C5.71912 2.54382 5.78659 2.5202 5.85489 2.49845L5.82223 2.39588C5.75198 2.41825 5.6826 2.44255 5.61414 2.4687L5.65254 2.56925ZM6.06095 2.43919C6.12986 2.42146 6.19953 2.40561 6.26989 2.39169L6.249 2.2861C6.17665 2.30041 6.105 2.31671 6.03413 2.33494L6.06095 2.43919ZM6.48119 2.35604C6.55159 2.34619 6.62261 2.33825 6.69419 2.33229L6.68526 2.22502C6.61167 2.23115 6.53866 2.23931 6.46627 2.24944L6.48119 2.35604ZM6.90823 2.32044C6.94393 2.31945 6.97977 2.31896 7.01572 2.31896V2.21132C6.97878 2.21132 6.94195 2.21183 6.90525 2.21284L6.90823 2.32044ZM7.01572 2.31896H7.12544V2.21132H7.01572V2.31896ZM7.34489 2.31896H7.56435V2.21132H7.34489V2.31896ZM7.7838 2.31896H8.00325V2.21132H7.7838V2.31896ZM8.2227 2.31896H8.44215V2.21132H8.2227V2.31896ZM8.6616 2.31896H8.88105V2.21132H8.6616V2.31896ZM9.1005 2.31896H9.31996V2.21132H9.1005V2.31896ZM9.53941 2.31896H9.75886V2.21132H9.53941V2.31896ZM9.97831 2.31896H10.1978V2.21132H9.97831V2.31896ZM10.4172 2.31896H10.6367V2.21132H10.4172V2.31896ZM10.8561 2.31896H11.0756V2.21132H10.8561V2.31896ZM11.295 2.31896H11.5145V2.21132H11.295V2.31896ZM11.7339 2.31896H11.9534V2.21132H11.7339V2.31896ZM12.1728 2.31896H12.3923V2.21132H12.1728V2.31896ZM12.6117 2.31896H12.8312V2.21132H12.6117V2.31896ZM13.0506 2.31896H13.2701V2.21132H13.0506V2.31896ZM13.4895 2.31896H13.709V2.21132H13.4895V2.31896ZM13.9284 2.31896H14.1479V2.21132H13.9284V2.31896ZM14.3673 2.31896H14.5868V2.21132H14.3673V2.31896ZM14.8062 2.31896H15.0257V2.21132H14.8062V2.31896ZM15.2451 2.31896H15.4646V2.21132H15.2451V2.31896ZM15.684 2.31896H15.9035V2.21132H15.684V2.31896ZM16.1229 2.31896H16.3424V2.21132H16.1229V2.31896ZM16.5618 2.31896H16.7813V2.21132H16.5618V2.31896ZM17.0007 2.31896H17.2202V2.21132H17.0007V2.31896ZM17.4397 2.31896H17.6591V2.21132H17.4397V2.31896ZM17.8786 2.31896H17.9883V2.21132H17.8786V2.31896ZM18.0421 2.26514V2.15188H17.9345V2.26514H18.0421ZM18.0421 1.92537V1.69885H17.9345V1.92537H18.0421ZM18.0421 1.47234V1.24583H17.9345V1.47234H18.0421ZM18.0421 1.01931V0.792798H17.9345V1.01931H18.0421ZM18.0421 0.566284V0.339771H17.9345V0.566284H18.0421ZM18.0421 0.113257V0H17.9345V0.113257H18.0421ZM17.9883 -0.0538207H17.8797V0.0538207H17.9883V-0.0538207ZM17.6625 -0.0538207H17.4453V0.0538207H17.6625V-0.0538207ZM17.228 -0.0538207H17.0108V0.0538207H17.228V-0.0538207ZM16.7936 -0.0538207H16.5764V0.0538207H16.7936V-0.0538207ZM16.3592 -0.0538207H16.142V0.0538207H16.3592V-0.0538207ZM15.9248 -0.0538207H15.7076V0.0538207H15.9248V-0.0538207ZM15.4903 -0.0538207H15.2731V0.0538207H15.4903V-0.0538207ZM15.0559 -0.0538207H14.8387V0.0538207H15.0559V-0.0538207ZM14.6215 -0.0538207H14.4043V0.0538207H14.6215V-0.0538207ZM14.1871 -0.0538207H13.9699V0.0538207H14.1871V-0.0538207ZM13.7527 -0.0538207H13.5354V0.0538207H13.7527V-0.0538207ZM13.3182 -0.0538207H13.101V0.0538207H13.3182V-0.0538207ZM12.8838 -0.0538207H12.6666V0.0538207H12.8838V-0.0538207ZM12.4494 -0.0538207H12.2322V0.0538207H12.4494V-0.0538207ZM12.015 -0.0538207H11.7977V0.0538207H12.015V-0.0538207ZM11.5805 -0.0538207H11.3633V0.0538207H11.5805V-0.0538207ZM11.1461 -0.0538207H10.9289V0.0538207H11.1461V-0.0538207ZM10.7117 -0.0538207H10.4945V0.0538207H10.7117V-0.0538207ZM10.2773 -0.0538207H10.0601V0.0538207H10.2773V-0.0538207ZM9.84284 -0.0538207H9.62563V0.0538207H9.84284V-0.0538207ZM9.40842 -0.0538207H9.19121V0.0538207H9.40842V-0.0538207ZM8.974 -0.0538207H8.75678V0.0538207H8.974V-0.0538207ZM8.53957 -0.0538207H8.32236V0.0538207H8.53957V-0.0538207ZM8.10515 -0.0538207H7.88794V0.0538207H8.10515V-0.0538207ZM7.67073 -0.0538207H7.45351V0.0538207H7.67073V-0.0538207ZM7.2363 -0.0538207H7.01909V0.0538207H7.2363V-0.0538207ZM6.80188 -0.0538207H6.69328V0.0538207H6.80188V-0.0538207ZM6.69328 -0.0538207C6.65718 -0.0538207 6.62115 -0.0534885 6.58521 -0.0528269L6.58719 0.0547963C6.62248 0.0541469 6.65784 0.0538207 6.69328 0.0538207V-0.0538207ZM6.37025 -0.0449121C6.29826 -0.0409313 6.22663 -0.0356281 6.15537 -0.0290263L6.1653 0.0781562C6.23523 0.0716772 6.30554 0.0664723 6.37619 0.0625652L6.37025 -0.0449121ZM5.94119 -0.00514827C5.86979 0.00416591 5.79879 0.0147883 5.72823 0.0266941L5.74614 0.132835C5.81538 0.121153 5.88504 0.110729 5.95511 0.101589L5.94119 -0.00514827ZM5.51672 0.0664768C5.44619 0.081119 5.37614 0.0970512 5.30658 0.114248L5.33241 0.218743C5.40066 0.20187 5.4694 0.186238 5.5386 0.171871L5.51672 0.0664768ZM5.09841 0.169893C5.02927 0.189781 4.96065 0.21093 4.8926 0.233314L4.92623 0.335566C4.993 0.313605 5.06032 0.292854 5.12817 0.273341L5.09841 0.169893ZM4.68938 0.304422C4.62193 0.329458 4.55508 0.35572 4.48886 0.383183L4.53009 0.482614C4.59507 0.455668 4.66066 0.4299 4.72684 0.405336L4.68938 0.304422ZM4.29142 0.469445C4.22609 0.499465 4.16142 0.530672 4.09743 0.563038L4.14602 0.65909C4.20881 0.627332 4.27226 0.596711 4.33637 0.567254L4.29142 0.469445ZM3.90713 0.663824C3.84426 0.698644 3.78211 0.734604 3.72072 0.771679L3.77636 0.863824C3.83661 0.827443 3.89759 0.792155 3.95928 0.757988L3.90713 0.663824ZM3.53841 0.886466C3.47833 0.925879 3.41904 0.966385 3.36056 1.00796L3.42292 1.09569C3.48031 1.0549 3.5385 1.01514 3.59746 0.976467L3.53841 0.886466ZM3.18737 1.13598C3.13042 1.17974 3.07432 1.22455 3.01908 1.27036L3.0878 1.35321C3.14201 1.30825 3.19707 1.26428 3.25296 1.22133L3.18737 1.13598ZM2.85588 1.41093C2.80236 1.4588 2.74973 1.50765 2.69803 1.55746L2.77272 1.63498C2.82345 1.58609 2.8751 1.53815 2.92764 1.49117L2.85588 1.41093ZM2.54574 1.70975C2.49593 1.76145 2.44708 1.81408 2.39921 1.8676L2.47945 1.93936C2.52643 1.88682 2.57437 1.83517 2.62326 1.78444L2.54574 1.70975ZM2.25864 2.0308C2.21283 2.08604 2.16802 2.14214 2.12426 2.19909L2.20961 2.26468C2.25256 2.20879 2.29653 2.15373 2.34149 2.09952L2.25864 2.0308ZM1.99624 2.37228C1.95467 2.43076 1.91416 2.49005 1.87475 2.55013L1.96475 2.60918C2.00342 2.55022 2.04318 2.49203 2.08397 2.43464L1.99624 2.37228ZM1.75996 2.73244C1.72288 2.79383 1.68692 2.85598 1.6521 2.91885L1.74627 2.971C1.78044 2.90931 1.81572 2.84833 1.8521 2.78808L1.75996 2.73244ZM1.55132 3.10916C1.51895 3.17314 1.48775 3.23782 1.45772 3.30315L1.55553 3.34809C1.58499 3.28399 1.61561 3.22053 1.64737 3.15774L1.55132 3.10916ZM1.37146 3.50058C1.344 3.56681 1.31774 3.63366 1.2927 3.7011L1.39362 3.73856C1.41818 3.67238 1.44395 3.60679 1.47089 3.54181L1.37146 3.50058ZM1.22159 3.90432C1.19921 3.97238 1.17806 4.04099 1.15817 4.11014L1.26162 4.13989C1.28113 4.07205 1.30189 4.00472 1.32385 3.93795L1.22159 3.90432ZM1.10253 4.3183C1.08533 4.38786 1.0694 4.45792 1.05476 4.52845L1.16015 4.55033C1.17452 4.48112 1.19015 4.41239 1.20702 4.34414L1.10253 4.3183ZM1.01497 4.73995C1.00307 4.81051 0.992447 4.88151 0.983133 4.95291L1.08987 4.96684C1.09901 4.89677 1.10943 4.8271 1.12112 4.75786L1.01497 4.73995ZM0.959255 5.16709C0.952653 5.23835 0.94735 5.30999 0.943369 5.38197L1.05085 5.38792C1.05475 5.31726 1.05996 5.24696 1.06644 5.17702L0.959255 5.16709ZM0.935454 5.59694C0.934793 5.63288 0.934461 5.6689 0.934461 5.705H1.0421C1.0421 5.66956 1.04243 5.6342 1.04308 5.59892L0.935454 5.59694ZM0.988281 46H0.88064V46.1076H0.988281V46ZM17.9883 46V46.1076H18.0959V46H17.9883ZM17.9883 39.4395H18.0959V39.1916L17.9148 39.3608L17.9883 39.4395ZM3.14062 41.2651H3.03298V41.3728H3.14062V41.2651ZM17.9883 2.26514V2.37278H18.0959V2.26514H17.9883ZM17.9883 0H18.0959V-0.107641H17.9883V0ZM0.88064 5.705V5.81217H1.09592V5.705H0.88064ZM0.88064 6.0265V6.24084H1.09592V6.0265H0.88064ZM0.88064 6.45517V6.66951H1.09592V6.45517H0.88064ZM0.88064 6.88384V7.09818H1.09592V6.88384H0.88064ZM0.88064 7.31251V7.52685H1.09592V7.31251H0.88064ZM0.88064 7.74118V7.95552H1.09592V7.74118H0.88064ZM0.88064 8.16985V8.38419H1.09592V8.16985H0.88064ZM0.88064 8.59852V8.81286H1.09592V8.59852H0.88064ZM0.88064 9.02719V9.24153H1.09592V9.02719H0.88064ZM0.88064 9.45586V9.6702H1.09592V9.45586H0.88064ZM0.88064 9.88453V10.0989H1.09592V9.88453H0.88064ZM0.88064 10.3132V10.5275H1.09592V10.3132H0.88064ZM0.88064 10.7419V10.9562H1.09592V10.7419H0.88064ZM0.88064 11.1705V11.3849H1.09592V11.1705H0.88064ZM0.88064 11.5992V11.8135H1.09592V11.5992H0.88064ZM0.88064 12.0279V12.2422H1.09592V12.0279H0.88064ZM0.88064 12.4566V12.6709H1.09592V12.4566H0.88064ZM0.88064 12.8852V13.0996H1.09592V12.8852H0.88064ZM0.88064 13.3139V13.5282H1.09592V13.3139H0.88064ZM0.88064 13.7426V13.9569H1.09592V13.7426H0.88064ZM0.88064 14.1712V14.3856H1.09592V14.1712H0.88064ZM0.88064 14.5999V14.8142H1.09592V14.5999H0.88064ZM0.88064 15.0286V15.2429H1.09592V15.0286H0.88064ZM0.88064 15.4572V15.6716H1.09592V15.4572H0.88064ZM0.88064 15.8859V16.1003H1.09592V15.8859H0.88064ZM0.88064 16.3146V16.5289H1.09592V16.3146H0.88064ZM0.88064 16.7433V16.9576H1.09592V16.7433H0.88064ZM0.88064 17.1719V17.3863H1.09592V17.1719H0.88064ZM0.88064 17.6006V17.8149H1.09592V17.6006H0.88064ZM0.88064 18.0293V18.2436H1.09592V18.0293H0.88064ZM0.88064 18.4579V18.6723H1.09592V18.4579H0.88064ZM0.88064 18.8866V19.1009H1.09592V18.8866H0.88064ZM0.88064 19.3153V19.5296H1.09592V19.3153H0.88064ZM0.88064 19.744V19.9583H1.09592V19.744H0.88064ZM0.88064 20.1726V20.387H1.09592V20.1726H0.88064ZM0.88064 20.6013V20.8156H1.09592V20.6013H0.88064ZM0.88064 21.03V21.2443H1.09592V21.03H0.88064ZM0.88064 21.4586V21.673H1.09592V21.4586H0.88064ZM0.88064 21.8873V22.1016H1.09592V21.8873H0.88064ZM0.88064 22.316V22.5303H1.09592V22.316H0.88064ZM0.88064 22.7446V22.959H1.09592V22.7446H0.88064ZM0.88064 23.1733V23.3877H1.09592V23.1733H0.88064ZM0.88064 23.602V23.8163H1.09592V23.602H0.88064ZM0.88064 24.0307V24.245H1.09592V24.0307H0.88064ZM0.88064 24.4593V24.6737H1.09592V24.4593H0.88064ZM0.88064 24.888V25.1023H1.09592V24.888H0.88064ZM0.88064 25.3167V25.531H1.09592V25.3167H0.88064ZM0.88064 25.7453V25.9597H1.09592V25.7453H0.88064ZM0.88064 26.174V26.3883H1.09592V26.174H0.88064ZM0.88064 26.6027V26.817H1.09592V26.6027H0.88064ZM0.88064 27.0313V27.2457H1.09592V27.0313H0.88064ZM0.88064 27.46V27.6743H1.09592V27.46H0.88064ZM0.88064 27.8887V28.103H1.09592V27.8887H0.88064ZM0.88064 28.3173V28.5317H1.09592V28.3173H0.88064ZM0.88064 28.746V28.9603H1.09592V28.746H0.88064ZM0.88064 29.1747V29.389H1.09592V29.1747H0.88064ZM0.88064 29.6034V29.8177H1.09592V29.6034H0.88064ZM0.88064 30.032V30.2464H1.09592V30.032H0.88064ZM0.88064 30.4607V30.675H1.09592V30.4607H0.88064ZM0.88064 30.8894V31.1037H1.09592V30.8894H0.88064ZM0.88064 31.318V31.5324H1.09592V31.318H0.88064ZM0.88064 31.7467V31.961H1.09592V31.7467H0.88064ZM0.88064 32.1754V32.3897H1.09592V32.1754H0.88064ZM0.88064 32.604V32.8184H1.09592V32.604H0.88064ZM0.88064 33.0327V33.247H1.09592V33.0327H0.88064ZM0.88064 33.4614V33.6757H1.09592V33.4614H0.88064ZM0.88064 33.89V34.1044H1.09592V33.89H0.88064ZM0.88064 34.3187V34.533H1.09592V34.3187H0.88064ZM0.88064 34.7474V34.9617H1.09592V34.7474H0.88064ZM0.88064 35.176V35.3904H1.09592V35.176H0.88064ZM0.88064 35.6047V35.8191H1.09592V35.6047H0.88064ZM0.88064 36.0334V36.2477H1.09592V36.0334H0.88064ZM0.88064 36.4621V36.6764H1.09592V36.4621H0.88064ZM0.88064 36.8907V37.1051H1.09592V36.8907H0.88064ZM0.88064 37.3194V37.5337H1.09592V37.3194H0.88064ZM0.88064 37.7481V37.9624H1.09592V37.7481H0.88064ZM0.88064 38.1767V38.3911H1.09592V38.1767H0.88064ZM0.88064 38.6054V38.8197H1.09592V38.6054H0.88064ZM0.88064 39.0341V39.2484H1.09592V39.0341H0.88064ZM0.88064 39.4628V39.6771H1.09592V39.4628H0.88064ZM0.88064 39.8914V40.1058H1.09592V39.8914H0.88064ZM0.88064 40.3201V40.5344H1.09592V40.3201H0.88064ZM0.88064 40.7488V40.9631H1.09592V40.7488H0.88064ZM0.88064 41.1774V41.3918H1.09592V41.1774H0.88064ZM0.88064 41.6061V41.8205H1.09592V41.6061H0.88064ZM0.88064 42.0348V42.2491H1.09592V42.0348H0.88064ZM0.88064 42.4635V42.6778H1.09592V42.4635H0.88064ZM0.88064 42.8921V43.1065H1.09592V42.8921H0.88064ZM0.88064 43.3208V43.5351H1.09592V43.3208H0.88064ZM0.88064 43.7495V43.9638H1.09592V43.7495H0.88064ZM0.88064 44.1782V44.3925H1.09592V44.1782H0.88064ZM0.88064 44.6068V44.8212H1.09592V44.6068H0.88064ZM0.88064 45.0355V45.2498H1.09592V45.0355H0.88064ZM0.88064 45.4642V45.6785H1.09592V45.4642H0.88064ZM0.88064 45.8928V46H1.09592V45.8928H0.88064ZM0.988281 46.1076H1.09726V45.8924H0.988281V46.1076ZM1.3152 46.1076H1.53315V45.8924H1.3152V46.1076ZM1.7511 46.1076H1.96905V45.8924H1.7511V46.1076ZM2.187 46.1076H2.40495V45.8924H2.187V46.1076ZM2.6229 46.1076H2.84085V45.8924H2.6229V46.1076ZM3.05879 46.1076H3.27674V45.8924H3.05879V46.1076ZM3.49469 46.1076H3.71264V45.8924H3.49469V46.1076ZM3.93059 46.1076H4.14854V45.8924H3.93059V46.1076ZM4.36649 46.1076H4.58443V45.8924H4.36649V46.1076ZM4.80238 46.1076H5.02033V45.8924H4.80238V46.1076ZM5.23828 46.1076H5.45623V45.8924H5.23828V46.1076ZM5.67418 46.1076H5.89213V45.8924H5.67418V46.1076ZM6.11008 46.1076H6.32803V45.8924H6.11008V46.1076ZM6.54597 46.1076H6.76392V45.8924H6.54597V46.1076ZM6.98187 46.1076H7.19982V45.8924H6.98187V46.1076ZM7.41777 46.1076H7.63572V45.8924H7.41777V46.1076ZM7.85367 46.1076H8.07162V45.8924H7.85367V46.1076ZM8.28957 46.1076H8.50751V45.8924H8.28957V46.1076ZM8.72546 46.1076H8.94341V45.8924H8.72546V46.1076ZM9.16136 46.1076H9.37931V45.8924H9.16136V46.1076ZM9.59726 46.1076H9.81521V45.8924H9.59726V46.1076ZM10.0332 46.1076H10.2511V45.8924H10.0332V46.1076ZM10.4691 46.1076H10.687V45.8924H10.4691V46.1076ZM10.905 46.1076H11.1229V45.8924H10.905V46.1076ZM11.3409 46.1076H11.5588V45.8924H11.3409V46.1076ZM11.7767 46.1076H11.9947V45.8924H11.7767V46.1076ZM12.2126 46.1076H12.4306V45.8924H12.2126V46.1076ZM12.6485 46.1076H12.8665V45.8924H12.6485V46.1076ZM13.0844 46.1076H13.3024V45.8924H13.0844V46.1076ZM13.5203 46.1076H13.7383V45.8924H13.5203V46.1076ZM13.9562 46.1076H14.1742V45.8924H13.9562V46.1076ZM14.3921 46.1076H14.6101V45.8924H14.3921V46.1076ZM14.828 46.1076H15.046V45.8924H14.828V46.1076ZM15.2639 46.1076H15.4819V45.8924H15.2639V46.1076ZM15.6998 46.1076H15.9178V45.8924H15.6998V46.1076ZM16.1357 46.1076H16.3537V45.8924H16.1357V46.1076ZM16.5716 46.1076H16.7896V45.8924H16.5716V46.1076ZM17.0075 46.1076H17.2255V45.8924H17.0075V46.1076ZM17.4434 46.1076H17.6614V45.8924H17.4434V46.1076ZM17.8793 46.1076H17.9883V45.8924H17.8793V46.1076ZM18.0959 46V45.8907H17.8806V46H18.0959ZM18.0959 45.672V45.4533H17.8806V45.672H18.0959ZM18.0959 45.2346V45.0159H17.8806V45.2346H18.0959ZM18.0959 44.7972V44.5786H17.8806V44.7972H18.0959ZM18.0959 44.3599V44.1412H17.8806V44.3599H18.0959ZM18.0959 43.9225V43.7038H17.8806V43.9225H18.0959ZM18.0959 43.4851V43.2665H17.8806V43.4851H18.0959ZM18.0959 43.0478V42.8291H17.8806V43.0478H18.0959ZM18.0959 42.6104V42.3917H17.8806V42.6104H18.0959ZM18.0959 42.173V41.9544H17.8806V42.173H18.0959ZM18.0959 41.7357V41.517H17.8806V41.7357H18.0959ZM18.0959 41.2983V41.0796H17.8806V41.2983H18.0959ZM18.0959 40.8609V40.6423H17.8806V40.8609H18.0959ZM18.0959 40.4236V40.2049H17.8806V40.4236H18.0959ZM18.0959 39.9862V39.7675H17.8806V39.9862H18.0959ZM18.0959 39.5488V39.4395H17.8806V39.5488H18.0959ZM17.9148 39.3608C17.8893 39.3846 17.8637 39.4082 17.8379 39.4316L17.9824 39.5911C18.0091 39.567 18.0355 39.5427 18.0618 39.5181L17.9148 39.3608ZM17.6808 39.5694C17.6278 39.6146 17.574 39.6589 17.5196 39.7023L17.6539 39.8706C17.7101 39.8257 17.7656 39.78 17.8203 39.7334L17.6808 39.5694ZM17.3543 39.8301C17.2985 39.8719 17.2421 39.9127 17.1851 39.9527L17.3086 40.129C17.3675 40.0877 17.4257 40.0455 17.4833 40.0025L17.3543 39.8301ZM17.0121 40.07C16.9539 40.1081 16.895 40.1454 16.8356 40.1817L16.9479 40.3654C17.0092 40.3279 17.07 40.2894 17.1301 40.25L17.0121 40.07ZM16.6556 40.2879C16.5951 40.3223 16.5341 40.3558 16.4724 40.3884L16.573 40.5788C16.6366 40.5451 16.6997 40.5105 16.7621 40.475L16.6556 40.2879ZM16.2862 40.4831C16.2237 40.5137 16.1606 40.5433 16.0971 40.5719L16.1855 40.7682C16.2511 40.7386 16.3162 40.7081 16.3807 40.6765L16.2862 40.4831ZM15.9053 40.6547C15.841 40.6812 15.7762 40.7068 15.7109 40.7314L15.7868 40.9329C15.8542 40.9075 15.9211 40.8811 15.9874 40.8537L15.9053 40.6547ZM15.5143 40.8019C15.4485 40.8244 15.3822 40.8458 15.3155 40.8662L15.3785 41.0721C15.4474 41.051 15.5158 41.0288 15.5838 41.0057L15.5143 40.8019ZM15.1148 40.9242C15.0477 40.9425 14.9802 40.9597 14.9124 40.9758L14.9623 41.1853C15.0323 41.1686 15.102 41.1508 15.1712 41.132L15.1148 40.9242ZM14.7084 41.0211C14.6403 41.035 14.5719 41.048 14.5031 41.0599L14.5397 41.272C14.6107 41.2597 14.6814 41.2464 14.7517 41.232L14.7084 41.0211ZM14.2967 41.0922C14.2279 41.1019 14.1588 41.1105 14.0894 41.118L14.1126 41.332C14.1843 41.3242 14.2556 41.3153 14.3266 41.3054L14.2967 41.0922ZM13.8813 41.1374C13.812 41.1427 13.7425 41.147 13.6727 41.1503L13.6826 41.3653C13.7546 41.362 13.8264 41.3576 13.8979 41.352L13.8813 41.1374ZM13.4638 41.1567C13.429 41.1572 13.3941 41.1575 13.3592 41.1575V41.3728C13.3953 41.3728 13.4312 41.3725 13.4671 41.3719L13.4638 41.1567ZM13.3592 41.1575H13.2528V41.3728H13.3592V41.1575ZM13.0399 41.1575H12.827V41.3728H13.0399V41.1575ZM12.6141 41.1575H12.4012V41.3728H12.6141V41.1575ZM12.1883 41.1575H11.9754V41.3728H12.1883V41.1575ZM11.7626 41.1575H11.5497V41.3728H11.7626V41.1575ZM11.3368 41.1575H11.1239V41.3728H11.3368V41.1575ZM10.911 41.1575H10.6981V41.3728H10.911V41.1575ZM10.4852 41.1575H10.2723V41.3728H10.4852V41.1575ZM10.0595 41.1575H9.84657V41.3728H10.0595V41.1575ZM9.63369 41.1575H9.4208V41.3728H9.63369V41.1575ZM9.20791 41.1575H8.99502V41.3728H9.20791V41.1575ZM8.78214 41.1575H8.56925V41.3728H8.78214V41.1575ZM8.35636 41.1575H8.14348V41.3728H8.35636V41.1575ZM7.93059 41.1575H7.7177V41.3728H7.93059V41.1575ZM7.50481 41.1575H7.29193V41.3728H7.50481V41.1575ZM7.07904 41.1575H6.86615V41.3728H7.07904V41.1575ZM6.65326 41.1575H6.44038V41.3728H6.65326V41.1575ZM6.22749 41.1575H6.0146V41.3728H6.22749V41.1575ZM5.80172 41.1575H5.58883V41.3728H5.80172V41.1575ZM5.37594 41.1575H5.16305V41.3728H5.37594V41.1575ZM4.95017 41.1575H4.73728V41.3728H4.95017V41.1575ZM4.52439 41.1575H4.31151V41.3728H4.52439V41.1575ZM4.09862 41.1575H3.88573V41.3728H4.09862V41.1575ZM3.67285 41.1575H3.45996V41.3728H3.67285V41.1575ZM3.24707 41.1575H3.14062V41.3728H3.24707V41.1575ZM3.24827 41.2651V41.158H3.03298V41.2651H3.24827ZM3.24827 40.9439V40.7297H3.03298V40.9439H3.24827ZM3.24827 40.5155V40.3013H3.03298V40.5155H3.24827ZM3.24827 40.0872V39.873H3.03298V40.0872H3.24827ZM3.24827 39.6588V39.4446H3.03298V39.6588H3.24827ZM3.24827 39.2305V39.0163H3.03298V39.2305H3.24827ZM3.24827 38.8021V38.5879H3.03298V38.8021H3.24827ZM3.24827 38.3738V38.1596H3.03298V38.3738H3.24827ZM3.24827 37.9454V37.7312H3.03298V37.9454H3.24827ZM3.24827 37.5171V37.3029H3.03298V37.5171H3.24827ZM3.24827 37.0887V36.8745H3.03298V37.0887H3.24827ZM3.24827 36.6603V36.4462H3.03298V36.6603H3.24827ZM3.24827 36.232V36.0178H3.03298V36.232H3.24827ZM3.24827 35.8036V35.5895H3.03298V35.8036H3.24827ZM3.24827 35.3753V35.1611H3.03298V35.3753H3.24827ZM3.24827 34.9469V34.7328H3.03298V34.9469H3.24827ZM3.24827 34.5186V34.3044H3.03298V34.5186H3.24827ZM3.24827 34.0902V33.8761H3.03298V34.0902H3.24827ZM3.24827 33.6619V33.4477H3.03298V33.6619H3.24827ZM3.24827 33.2335V33.0194H3.03298V33.2335H3.24827ZM3.24827 32.8052V32.591H3.03298V32.8052H3.24827ZM3.24827 32.3768V32.1626H3.03298V32.3768H3.24827ZM3.24827 31.9485V31.7343H3.03298V31.9485H3.24827ZM3.24827 31.5201V31.3059H3.03298V31.5201H3.24827ZM3.24827 31.0918V30.8776H3.03298V31.0918H3.24827ZM3.24827 30.6634V30.4492H3.03298V30.6634H3.24827ZM3.24827 30.2351V30.0209H3.03298V30.2351H3.24827ZM3.24827 29.8067V29.5925H3.03298V29.8067H3.24827ZM3.24827 29.3784V29.1642H3.03298V29.3784H3.24827ZM3.24827 28.95V28.7358H3.03298V28.95H3.24827ZM3.24827 28.5217V28.3075H3.03298V28.5217H3.24827ZM3.24827 28.0933V27.8791H3.03298V28.0933H3.24827ZM3.24827 27.6649V27.4508H3.03298V27.6649H3.24827ZM3.24827 27.2366V27.0224H3.03298V27.2366H3.24827ZM3.24827 26.8082V26.5941H3.03298V26.8082H3.24827ZM3.24827 26.3799V26.1657H3.03298V26.3799H3.24827ZM3.24827 25.9515V25.7374H3.03298V25.9515H3.24827ZM3.24827 25.5232V25.309H3.03298V25.5232H3.24827ZM3.24827 25.0948V24.8807H3.03298V25.0948H3.24827ZM3.24827 24.6665V24.4523H3.03298V24.6665H3.24827ZM3.24827 24.2381V24.024H3.03298V24.2381H3.24827ZM3.24827 23.8098V23.5956H3.03298V23.8098H3.24827ZM3.24827 23.3814V23.1672H3.03298V23.3814H3.24827ZM3.24827 22.9531V22.7389H3.03298V22.9531H3.24827ZM3.24827 22.5247V22.3105H3.03298V22.5247H3.24827ZM3.24827 22.0964V21.8822H3.03298V22.0964H3.24827ZM3.24827 21.668V21.4538H3.03298V21.668H3.24827ZM3.24827 21.2397V21.0255H3.03298V21.2397H3.24827ZM3.24827 20.8113V20.5971H3.03298V20.8113H3.24827ZM3.24827 20.383V20.1688H3.03298V20.383H3.24827ZM3.24827 19.9546V19.7404H3.03298V19.9546H3.24827ZM3.24827 19.5263V19.3121H3.03298V19.5263H3.24827ZM3.24827 19.0979V18.8837H3.03298V19.0979H3.24827ZM3.24827 18.6695V18.4554H3.03298V18.6695H3.24827ZM3.24827 18.2412V18.027H3.03298V18.2412H3.24827ZM3.24827 17.8128V17.5987H3.03298V17.8128H3.24827ZM3.24827 17.3845V17.1703H3.03298V17.3845H3.24827ZM3.24827 16.9561V16.742H3.03298V16.9561H3.24827ZM3.24827 16.5278V16.3136H3.03298V16.5278H3.24827ZM3.24827 16.0994V15.8853H3.03298V16.0994H3.24827ZM3.24827 15.6711V15.4569H3.03298V15.6711H3.24827ZM3.24827 15.2427V15.0286H3.03298V15.2427H3.24827ZM3.24827 14.8144V14.6002H3.03298V14.8144H3.24827ZM3.24827 14.386V14.1718H3.03298V14.386H3.24827ZM3.24827 13.9577V13.7435H3.03298V13.9577H3.24827ZM3.24827 13.5293V13.3151H3.03298V13.5293H3.24827ZM3.24827 13.101V12.8868H3.03298V13.101H3.24827ZM3.24827 12.6726V12.4584H3.03298V12.6726H3.24827ZM3.24827 12.2443V12.0301H3.03298V12.2443H3.24827ZM3.24827 11.8159V11.6017H3.03298V11.8159H3.24827ZM3.24827 11.3876V11.1734H3.03298V11.3876H3.24827ZM3.24827 10.9592V10.745H3.03298V10.9592H3.24827ZM3.24827 10.5309V10.3167H3.03298V10.5309H3.24827ZM3.24827 10.1025V9.88832H3.03298V10.1025H3.24827ZM3.24827 9.67415V9.45997H3.03298V9.67415H3.24827ZM3.24827 9.2458V9.03162H3.03298V9.2458H3.24827ZM3.24827 8.81744V8.60327H3.03298V8.81744H3.24827ZM3.24827 8.38909V8.17491H3.03298V8.38909H3.24827ZM3.24827 7.96074V7.74656H3.03298V7.96074H3.24827ZM3.24827 7.53239V7.31821H3.03298V7.53239H3.24827ZM3.24827 7.10403V6.88986H3.03298V7.10403H3.24827ZM3.24827 6.67568V6.4615H3.03298V6.67568H3.24827ZM3.24827 6.24733V6.14023H3.03298V6.24733H3.24827ZM3.24827 6.14023C3.24827 6.10477 3.24876 6.06944 3.24973 6.03422L3.03453 6.02828C3.0335 6.06547 3.03298 6.10279 3.03298 6.14023H3.24827ZM3.26141 5.82317C3.26729 5.75259 3.27512 5.68257 3.28483 5.61317L3.07162 5.58333C3.06135 5.6567 3.05309 5.73072 3.04687 5.8053L3.26141 5.82317ZM3.31998 5.40485C3.3337 5.33548 3.34933 5.2668 3.3668 5.19887L3.15831 5.14524C3.13983 5.21709 3.1233 5.28972 3.10879 5.36307L3.31998 5.40485ZM3.42522 4.99573C3.44666 4.9284 3.46995 4.86189 3.49502 4.79626L3.29391 4.71944C3.2674 4.78885 3.24277 4.85919 3.22009 4.93041L3.42522 4.99573ZM3.57597 4.60106C3.60484 4.53664 3.63546 4.47318 3.66779 4.41074L3.4766 4.31177C3.44242 4.37779 3.41004 4.4449 3.37951 4.51301L3.57597 4.60106ZM3.77017 4.22588C3.80607 4.16516 3.84362 4.10553 3.88277 4.04705L3.70388 3.92728C3.6625 3.98909 3.6228 4.05213 3.58485 4.11633L3.77017 4.22588ZM4.00523 3.87477C4.04767 3.81846 4.09166 3.76338 4.13713 3.70958L3.97271 3.57061C3.92466 3.62746 3.87817 3.68567 3.83331 3.74519L4.00523 3.87477ZM4.27803 3.55201C4.32646 3.50081 4.3763 3.45097 4.4275 3.40254L4.27958 3.24613C4.22547 3.29731 4.1728 3.34998 4.12162 3.40409L4.27803 3.55201ZM4.58507 3.26164C4.63887 3.21617 4.69395 3.17218 4.75026 3.12974L4.62068 2.95782C4.56116 3.00268 4.50295 3.04917 4.4461 3.09722L4.58507 3.26164ZM4.92254 3.00728C4.98102 2.96813 5.04065 2.93058 5.10137 2.89468L4.99182 2.70936C4.92762 2.74731 4.86458 2.78701 4.80277 2.82839L4.92254 3.00728ZM5.28623 2.7923C5.34867 2.75997 5.41213 2.72935 5.47655 2.70048L5.3885 2.50402C5.32039 2.53455 5.25328 2.56694 5.18726 2.60111L5.28623 2.7923ZM5.67175 2.61953C5.73738 2.59446 5.80389 2.57118 5.87122 2.54973L5.8059 2.3446C5.73468 2.36728 5.66434 2.39191 5.59493 2.41842L5.67175 2.61953ZM6.07436 2.49131C6.14229 2.47384 6.21097 2.45821 6.28034 2.44449L6.23856 2.2333C6.1652 2.24781 6.09258 2.26434 6.02073 2.28282L6.07436 2.49131ZM6.48865 2.40934C6.55806 2.39963 6.62808 2.3918 6.69866 2.38592L6.68079 2.17138C6.6062 2.1776 6.53219 2.18587 6.45882 2.19614L6.48865 2.40934ZM6.90971 2.37424C6.94493 2.37327 6.98026 2.37278 7.01572 2.37278V2.1575C6.97828 2.1575 6.94096 2.15801 6.90377 2.15904L6.90971 2.37424ZM7.01572 2.37278H7.12544V2.1575H7.01572V2.37278ZM7.34489 2.37278H7.56435V2.1575H7.34489V2.37278ZM7.7838 2.37278H8.00325V2.1575H7.7838V2.37278ZM8.2227 2.37278H8.44215V2.1575H8.2227V2.37278ZM8.6616 2.37278H8.88105V2.1575H8.6616V2.37278ZM9.1005 2.37278H9.31996V2.1575H9.1005V2.37278ZM9.53941 2.37278H9.75886V2.1575H9.53941V2.37278ZM9.97831 2.37278H10.1978V2.1575H9.97831V2.37278ZM10.4172 2.37278H10.6367V2.1575H10.4172V2.37278ZM10.8561 2.37278H11.0756V2.1575H10.8561V2.37278ZM11.295 2.37278H11.5145V2.1575H11.295V2.37278ZM11.7339 2.37278H11.9534V2.1575H11.7339V2.37278ZM12.1728 2.37278H12.3923V2.1575H12.1728V2.37278ZM12.6117 2.37278H12.8312V2.1575H12.6117V2.37278ZM13.0506 2.37278H13.2701V2.1575H13.0506V2.37278ZM13.4895 2.37278H13.709V2.1575H13.4895V2.37278ZM13.9284 2.37278H14.1479V2.1575H13.9284V2.37278ZM14.3673 2.37278H14.5868V2.1575H14.3673V2.37278ZM14.8062 2.37278H15.0257V2.1575H14.8062V2.37278ZM15.2451 2.37278H15.4646V2.1575H15.2451V2.37278ZM15.684 2.37278H15.9035V2.1575H15.684V2.37278ZM16.1229 2.37278H16.3424V2.1575H16.1229V2.37278ZM16.5618 2.37278H16.7813V2.1575H16.5618V2.37278ZM17.0007 2.37278H17.2202V2.1575H17.0007V2.37278ZM17.4397 2.37278H17.6591V2.1575H17.4397V2.37278ZM17.8786 2.37278H17.9883V2.1575H17.8786V2.37278ZM18.0959 2.26514V2.15188H17.8806V2.26514H18.0959ZM18.0959 1.92537V1.69885H17.8806V1.92537H18.0959ZM18.0959 1.47234V1.24583H17.8806V1.47234H18.0959ZM18.0959 1.01931V0.792798H17.8806V1.01931H18.0959ZM18.0959 0.566284V0.339771H17.8806V0.566284H18.0959ZM18.0959 0.113257V0H17.8806V0.113257H18.0959ZM17.9883 -0.107641H17.8797V0.107641H17.9883V-0.107641ZM17.6625 -0.107641H17.4453V0.107641H17.6625V-0.107641ZM17.228 -0.107641H17.0108V0.107641H17.228V-0.107641ZM16.7936 -0.107641H16.5764V0.107641H16.7936V-0.107641ZM16.3592 -0.107641H16.142V0.107641H16.3592V-0.107641ZM15.9248 -0.107641H15.7076V0.107641H15.9248V-0.107641ZM15.4903 -0.107641H15.2731V0.107641H15.4903V-0.107641ZM15.0559 -0.107641H14.8387V0.107641H15.0559V-0.107641ZM14.6215 -0.107641H14.4043V0.107641H14.6215V-0.107641ZM14.1871 -0.107641H13.9699V0.107641H14.1871V-0.107641ZM13.7527 -0.107641H13.5354V0.107641H13.7527V-0.107641ZM13.3182 -0.107641H13.101V0.107641H13.3182V-0.107641ZM12.8838 -0.107641H12.6666V0.107641H12.8838V-0.107641ZM12.4494 -0.107641H12.2322V0.107641H12.4494V-0.107641ZM12.015 -0.107641H11.7977V0.107641H12.015V-0.107641ZM11.5805 -0.107641H11.3633V0.107641H11.5805V-0.107641ZM11.1461 -0.107641H10.9289V0.107641H11.1461V-0.107641ZM10.7117 -0.107641H10.4945V0.107641H10.7117V-0.107641ZM10.2773 -0.107641H10.0601V0.107641H10.2773V-0.107641ZM9.84284 -0.107641H9.62563V0.107641H9.84284V-0.107641ZM9.40842 -0.107641H9.19121V0.107641H9.40842V-0.107641ZM8.974 -0.107641H8.75678V0.107641H8.974V-0.107641ZM8.53957 -0.107641H8.32236V0.107641H8.53957V-0.107641ZM8.10515 -0.107641H7.88794V0.107641H8.10515V-0.107641ZM7.67073 -0.107641H7.45351V0.107641H7.67073V-0.107641ZM7.2363 -0.107641H7.01909V0.107641H7.2363V-0.107641ZM6.80188 -0.107641H6.69328V0.107641H6.80188V-0.107641ZM6.69328 -0.107641C6.65685 -0.107641 6.62049 -0.107306 6.58422 -0.106638L6.58818 0.108608C6.62314 0.107965 6.65817 0.107641 6.69328 0.107641V-0.107641ZM6.36728 -0.0986507C6.29463 -0.094633 6.22233 -0.0892807 6.1504 -0.0826175L6.17026 0.131747C6.23953 0.12533 6.30918 0.120174 6.37916 0.116304L6.36728 -0.0986507ZM5.93423 -0.0585169C5.86216 -0.0491157 5.7905 -0.0383939 5.71928 -0.0263764L5.75509 0.185906C5.82367 0.174335 5.89267 0.164011 5.96208 0.154958L5.93423 -0.0585169ZM5.50578 0.0137797C5.43459 0.0285595 5.36388 0.0446416 5.29366 0.0619999L5.34533 0.270991C5.41292 0.25428 5.481 0.238797 5.54954 0.224568L5.50578 0.0137797ZM5.08354 0.118169C5.01374 0.138245 4.94448 0.159593 4.87578 0.182187L4.94304 0.386693C5.00918 0.364942 5.07585 0.344391 5.14305 0.325064L5.08354 0.118169ZM4.67065 0.253965C4.60257 0.279237 4.53509 0.305746 4.46824 0.333467L4.55071 0.53233C4.61506 0.505642 4.68003 0.480121 4.74557 0.455792L4.67065 0.253965ZM4.26895 0.42054C4.20301 0.450842 4.13773 0.482342 4.07314 0.515011L4.17031 0.707117C4.2325 0.675661 4.29535 0.645333 4.35884 0.616159L4.26895 0.42054ZM3.88105 0.616743C3.8176 0.651888 3.75487 0.688185 3.69289 0.725606L3.80418 0.909897C3.86385 0.873863 3.92426 0.838911 3.98536 0.80507L3.88105 0.616743ZM3.50889 0.841465C3.44825 0.881246 3.3884 0.92213 3.32937 0.964089L3.4541 1.13956C3.51095 1.09915 3.56858 1.05978 3.62698 1.02147L3.50889 0.841465ZM3.15458 1.09331C3.0971 1.13748 3.04047 1.1827 2.98472 1.22894L3.12216 1.39464C3.17586 1.3501 3.2304 1.30655 3.28576 1.26401L3.15458 1.09331ZM2.82001 1.37081C2.76598 1.41912 2.71287 1.46843 2.66069 1.5187L2.81006 1.67373C2.86032 1.62531 2.91148 1.57782 2.96351 1.53129L2.82001 1.37081ZM2.50698 1.67241C2.45671 1.72459 2.4074 1.7777 2.35909 1.83173L2.51957 1.97523C2.5661 1.9232 2.61359 1.87204 2.66201 1.82178L2.50698 1.67241ZM2.21722 1.99644C2.17098 2.05219 2.12576 2.10882 2.08159 2.1663L2.25229 2.29748C2.29483 2.24212 2.33838 2.18758 2.38292 2.13388L2.21722 1.99644ZM1.95237 2.34109C1.91041 2.40012 1.86953 2.45997 1.82975 2.52061L2.00975 2.6387C2.04806 2.58031 2.08743 2.52267 2.12784 2.46582L1.95237 2.34109ZM1.71389 2.70462C1.67647 2.76659 1.64017 2.82932 1.60502 2.89277L1.79335 2.99708C1.82719 2.93598 1.86214 2.87557 1.89818 2.8159L1.71389 2.70462ZM1.50329 3.08486C1.47062 3.14945 1.43912 3.21473 1.40882 3.28067L1.60444 3.37056C1.63361 3.30707 1.66394 3.24422 1.6954 3.18203L1.50329 3.08486ZM1.32175 3.47996C1.29403 3.54681 1.26752 3.61429 1.24225 3.68237L1.44407 3.75729C1.4684 3.69175 1.49392 3.62679 1.52061 3.56243L1.32175 3.47996ZM1.17047 3.88751C1.14787 3.9562 1.12653 4.02546 1.10645 4.09526L1.31334 4.15477C1.33267 4.08757 1.35322 4.0209 1.37497 3.95477L1.17047 3.88751ZM1.05028 4.30539C1.03292 4.3756 1.01684 4.44632 1.00206 4.51751L1.21285 4.56127C1.22708 4.49273 1.24256 4.42465 1.25927 4.35705L1.05028 4.30539ZM0.961904 4.731C0.949887 4.80222 0.939165 4.87388 0.929764 4.94595L1.14324 4.9738C1.15229 4.9044 1.16262 4.83539 1.17419 4.76682L0.961904 4.731ZM0.905663 5.16213C0.899 5.23405 0.893648 5.30635 0.88963 5.379L1.10458 5.39089C1.10846 5.3209 1.11361 5.25126 1.12003 5.18198L0.905663 5.16213ZM0.881643 5.59595C0.880975 5.63222 0.88064 5.66857 0.88064 5.705H1.09592C1.09592 5.66989 1.09625 5.63486 1.09689 5.59991L0.881643 5.59595Z" fill="white" mask="url(#path-1-inside-1_83_6)"/>
</g>
</g>
<defs>
<filter id="filter0_d_83_6" x="-36.1298" y="-31.1792" width="91.2362" height="120.236" filterUnits="userSpaceOnUse" color-interpolation-filters="sRGB">
<feFlood flood-opacity="0" result="BackgroundImageFix"/>
<feColorMatrix in="SourceAlpha" type="matrix" values="0 0 0 0 0 0 0 0 0 0 0 0 0 0 0 0 0 0 127 0" result="hardAlpha"/>
<feOffset dy="5.93889"/>
<feGaussianBlur stdDeviation="18.559"/>
<feComposite in2="hardAlpha" operator="out"/>
<feColorMatrix type="matrix" values="0 0 0 0 1 0 0 0 0 1 0 0 0 0 1 0 0 0 0.5 0"/>
<feBlend mode="normal" in2="BackgroundImageFix" result="effect1_dropShadow_83_6"/>
<feBlend mode="normal" in="SourceGraphic" in2="effect1_dropShadow_83_6" result="shape"/>
</filter>
<clipPath id="clip0_83_6">
<rect width="10" height="32" fill="white" transform="translate(0.715576 0.193359)"/>
</clipPath>
</defs>
</svg>
