<svg width="50" height="50" viewBox="0 0 28 28" fill="none" xmlns="http://www.w3.org/2000/svg">
<g clip-path="url(#clip0_83_70)">
<path d="M21.0898 0.019043H6.74609C3.25117 0.019043 0.417969 2.85224 0.417969 6.34717V20.6909C0.417969 24.1858 3.25117 27.019 6.74609 27.019H21.0898C24.5848 27.019 27.418 24.1858 27.418 20.6909V6.34717C27.418 2.85224 24.5848 0.019043 21.0898 0.019043Z" fill="#242938"/>
<path d="M13.8419 3.07764C8.48702 3.07764 8.82142 5.39985 8.82142 5.39985L8.82739 7.80563H13.9375V8.52797H6.7977C6.7977 8.52797 3.37109 8.13936 3.37109 13.5425C3.37109 18.9456 6.3619 18.7541 6.3619 18.7541H8.14684V16.2468C8.14684 16.2468 8.05064 13.256 11.0899 13.256H16.1581C16.1581 13.256 19.0057 13.302 19.0057 10.5039V5.87742C19.0057 5.87742 19.438 3.07764 13.8419 3.07764ZM11.0242 4.69542C11.5327 4.69542 11.9436 5.10634 11.9436 5.61475C11.9436 6.12316 11.5327 6.53409 11.0242 6.53409C10.5158 6.53409 10.1049 6.12316 10.1049 5.61475C10.1049 5.10634 10.5158 4.69542 11.0242 4.69542Z" fill="url(#paint0_linear_83_70)"/>
<path d="M13.994 24.0615C19.3489 24.0615 19.0146 21.7394 19.0146 21.7394L19.0085 19.3335H13.8985V18.6112H21.0383C21.0383 18.6112 24.4649 18.9998 24.4649 13.5966C24.4649 8.1935 21.4741 8.38512 21.4741 8.38512H19.6891V10.8924C19.6891 10.8924 19.7853 13.8832 16.746 13.8832H11.6778C11.6778 13.8832 8.83025 13.8371 8.83025 16.6352V21.2617C8.83025 21.2617 8.39792 24.0615 13.994 24.0615ZM16.8117 22.4437C16.3033 22.4437 15.8924 22.0328 15.8924 21.5244C15.8924 21.016 16.3033 20.605 16.8117 20.605C17.3201 20.605 17.7311 21.016 17.7311 21.5244C17.7311 22.0328 17.3201 22.4437 16.8117 22.4437Z" fill="url(#paint1_linear_83_70)"/>
</g>
<defs>
<linearGradient id="paint0_linear_83_70" x1="5.3982" y1="4.96511" x2="15.8515" y2="15.3141" gradientUnits="userSpaceOnUse">
<stop stop-color="#387EB8"/>
<stop offset="1" stop-color="#366994"/>
</linearGradient>
<linearGradient id="paint1_linear_83_70" x1="11.8145" y1="11.6106" x2="23.0402" y2="22.2225" gradientUnits="userSpaceOnUse">
<stop stop-color="#FFE052"/>
<stop offset="1" stop-color="#FFC331"/>
</linearGradient>
<clipPath id="clip0_83_70">
<rect width="27" height="27" fill="white" transform="translate(0.417969 0.019043)"/>
</clipPath>
</defs>
</svg>
