<svg width="50" height="50" viewBox="0 0 28 28" fill="none" xmlns="http://www.w3.org/2000/svg">
<g clip-path="url(#clip0_83_25)">
<path d="M20.854 0.366699H6.51025C3.01533 0.366699 0.182129 3.1999 0.182129 6.69482V21.0386C0.182129 24.5335 3.01533 27.3667 6.51025 27.3667H20.854C24.3489 27.3667 27.1821 24.5335 27.1821 21.0386V6.69482C27.1821 3.1999 24.3489 0.366699 20.854 0.366699Z" fill="#CD6799"/>
<mask id="mask0_83_25" style="mask-type:luminance" maskUnits="userSpaceOnUse" x="3" y="5" width="22" height="17">
<path d="M24.229 5.95654H3.13525V21.7673H24.229V5.95654Z" fill="white"/>
</mask>
<g mask="url(#mask0_83_25)">
<path d="M21.2872 15.0441C20.5517 15.0479 19.9125 15.2251 19.3773 15.4868C19.1809 15.098 18.9845 14.7514 18.9498 14.4972C18.9113 14.2008 18.8651 14.0198 18.9113 13.6655C18.9575 13.3112 19.1655 12.8069 19.1616 12.7684C19.1578 12.7298 19.1154 12.5489 18.6918 12.545C18.2683 12.5412 17.9025 12.6259 17.8601 12.7376C17.8177 12.8492 17.7369 13.1034 17.683 13.3652C17.6098 13.7503 16.8358 15.125 16.393 15.845C16.2505 15.5639 16.1273 15.3175 16.1003 15.1211C16.0618 14.8246 16.0157 14.6436 16.0618 14.2894C16.108 13.9351 16.316 13.4306 16.3121 13.3921C16.3083 13.3536 16.2659 13.1727 15.8424 13.1689C15.4188 13.165 15.0529 13.2496 15.0106 13.3613C14.9682 13.473 14.922 13.7349 14.8335 13.989C14.745 14.2432 13.7169 16.5382 13.4473 17.1311C13.3087 17.4353 13.1893 17.6779 13.1046 17.8434C13.1046 17.8434 13.1007 17.855 13.0892 17.8742C13.016 18.0167 12.9736 18.0937 12.9736 18.0937C12.9736 18.0937 12.9736 18.0937 12.9736 18.0976C12.9159 18.2016 12.8542 18.2978 12.8234 18.2978C12.8003 18.2978 12.758 18.0206 12.8311 17.6433C12.9852 16.8461 13.351 15.6062 13.3472 15.5639C13.3472 15.5408 13.4165 15.3252 13.1084 15.2135C12.808 15.1018 12.7002 15.2867 12.6732 15.2867C12.6463 15.2867 12.627 15.3522 12.627 15.3522C12.627 15.3522 12.9621 13.9582 11.9879 13.9582C11.3795 13.9582 10.54 14.6243 10.1242 15.2251C9.86233 15.3676 9.30399 15.6717 8.70714 15.999C8.47996 16.1261 8.24507 16.2532 8.02558 16.3726C8.01019 16.3572 7.99479 16.3379 7.97938 16.3225C6.80109 15.0633 4.62163 14.1739 4.71404 12.4834C4.7487 11.8673 4.96048 10.25 8.89968 8.28621C12.1419 6.6882 14.7219 7.13102 15.1685 8.11294C15.8077 9.51456 13.7861 12.1175 10.4361 12.4949C9.15767 12.6374 8.48766 12.1445 8.31824 11.9598C8.1411 11.7672 8.11416 11.7557 8.04869 11.7942C7.94087 11.8519 8.01019 12.0252 8.04869 12.1252C8.1488 12.3871 8.56083 12.8492 9.25779 13.0764C9.87389 13.2766 11.3718 13.3883 13.1854 12.6875C15.2147 11.902 16.8012 9.71865 16.3352 7.8896C15.8694 6.0336 12.7888 5.42134 9.87389 6.45716C8.1411 7.07327 6.262 8.04362 4.91043 9.30663C3.30472 10.8084 3.05057 12.1137 3.15454 12.6605C3.52805 14.6012 6.20424 15.8642 7.27471 16.7999C7.2208 16.8307 7.17075 16.8577 7.12839 16.8808C6.59315 17.1465 4.55232 18.2131 4.04403 19.3414C3.46644 20.6198 4.13646 21.5362 4.57928 21.6594C5.95395 22.0407 7.36713 21.3552 8.1257 20.2231C8.88428 19.091 8.79187 17.6202 8.44146 16.9463C8.43761 16.9386 8.43376 16.9309 8.42605 16.9232C8.56468 16.8423 8.70714 16.7576 8.84577 16.6767C9.11917 16.5151 9.3887 16.3649 9.61974 16.2416C9.48883 16.5998 9.39256 17.0271 9.34635 17.6433C9.28859 18.3672 9.58509 19.3067 9.974 19.6764C10.1473 19.8381 10.3514 19.842 10.4823 19.842C10.9367 19.842 11.1408 19.4646 11.368 19.0179C11.6451 18.4711 11.8955 17.8357 11.8955 17.8357C11.8955 17.8357 11.5835 19.5532 12.4307 19.5532C12.7387 19.5532 13.0506 19.1527 13.1893 18.9486C13.1893 18.9524 13.1893 18.9524 13.1893 18.9524C13.1893 18.9524 13.197 18.9409 13.2124 18.9139C13.2432 18.8639 13.2624 18.8331 13.2624 18.8331C13.2624 18.8331 13.2624 18.8293 13.2624 18.8254C13.3857 18.6098 13.6629 18.1207 14.0749 17.3082C14.6063 16.2609 15.1184 14.9517 15.1184 14.9517C15.1184 14.9517 15.1646 15.2713 15.3225 15.8026C15.4149 16.1146 15.6075 16.4573 15.7615 16.7884C15.6383 16.9617 15.5613 17.0579 15.5613 17.0579C15.5613 17.0579 15.5613 17.0579 15.5651 17.0618C15.465 17.1927 15.3572 17.3352 15.2378 17.4738C14.8181 17.9744 14.3175 18.5482 14.2482 18.7138C14.1673 18.9102 14.1866 19.0525 14.3406 19.1681C14.4523 19.2528 14.6525 19.2643 14.8566 19.2528C15.2339 19.2258 15.4997 19.1334 15.6306 19.0756C15.8347 19.0025 16.0734 18.8909 16.2967 18.7253C16.7088 18.4211 16.9591 17.9859 16.936 17.4122C16.9244 17.0964 16.8204 16.7807 16.6934 16.4842C16.7319 16.4303 16.7665 16.3764 16.805 16.3225C17.4558 15.3714 17.9602 14.3279 17.9602 14.3279C17.9602 14.3279 18.0064 14.6474 18.1643 15.1789C18.2413 15.4484 18.3991 15.741 18.5378 16.026C17.9256 16.5228 17.5482 17.1003 17.4134 17.4777C17.1709 18.1785 17.3595 18.4942 17.7176 18.5674C17.8794 18.6021 18.1104 18.5251 18.2799 18.4519C18.4954 18.3826 18.7496 18.2632 18.9922 18.086C19.4042 17.7818 19.8008 17.3583 19.7777 16.7845C19.7661 16.5228 19.6968 16.2647 19.6005 16.0144C20.1204 15.7988 20.7904 15.6794 21.6453 15.7795C23.4782 15.9952 23.8402 17.1388 23.7708 17.6202C23.7015 18.1014 23.3164 18.3633 23.1893 18.4442C23.0623 18.5251 23.0199 18.552 23.0315 18.6098C23.0469 18.6945 23.1085 18.6906 23.2163 18.6752C23.3665 18.6483 24.1789 18.2863 24.2136 17.4007C24.2714 16.2686 23.1932 15.0325 21.2872 15.0441ZM7.14764 19.8112C6.53924 20.4734 5.69211 20.7238 5.3263 20.512C4.93354 20.2847 5.08756 19.3067 5.83458 18.6059C6.28896 18.1785 6.87424 17.7818 7.26316 17.5393C7.35172 17.4854 7.48265 17.4084 7.64053 17.3121C7.66748 17.2967 7.68288 17.289 7.68288 17.289C7.71368 17.2697 7.74449 17.2505 7.7753 17.2312C8.04869 18.2324 7.78684 19.1142 7.14764 19.8112ZM11.5758 16.7999C11.3641 17.316 10.9213 18.6367 10.6517 18.5636C10.4207 18.5019 10.2782 17.5008 10.6055 16.5112C10.7711 16.0144 11.1215 15.4215 11.3256 15.1904C11.6567 14.8207 12.0225 14.6975 12.1111 14.8477C12.2228 15.0441 11.7068 16.4765 11.5758 16.7999ZM15.2301 18.5482C15.1415 18.5944 15.0568 18.6252 15.0183 18.6021C14.9913 18.5867 15.0568 18.5251 15.0568 18.5251C15.0568 18.5251 15.5151 18.0321 15.6961 17.8088C15.8 17.6779 15.9233 17.5239 16.0541 17.3506C16.0541 17.366 16.0541 17.3853 16.0541 17.4007C16.0541 17.9898 15.4843 18.3864 15.2301 18.5482ZM18.0488 17.905C17.9833 17.8588 17.9949 17.7049 18.2144 17.2235C18.2991 17.0348 18.4993 16.7191 18.842 16.4149C18.8805 16.5382 18.9075 16.6574 18.9036 16.7691C18.8998 17.5124 18.3683 17.7895 18.0488 17.905Z" fill="white"/>
</g>
</g>
<defs>
<clipPath id="clip0_83_25">
<rect width="27" height="27" fill="white" transform="translate(0.182129 0.366699)"/>
</clipPath>
</defs>
</svg>
