<svg width="44" height="50" viewBox="0 0 28 34" fill="none" xmlns="http://www.w3.org/2000/svg">
<path d="M11.7766 33.0611C8.40355 32.8385 5.06975 32.0609 3.02515 31.02C1.86055 30.4272 0.973287 29.6985 0.625119 29.0492L0.417969 28.6628V16.5433V4.42385L0.581886 4.11905C1.3144 2.7571 3.65221 1.52929 6.91564 0.792595C8.02343 0.542503 9.62267 0.293451 10.9274 0.167863C12.2596 0.039588 15.7908 0.0591041 17.1198 0.202276C20.6518 0.582293 23.6573 1.43306 25.5095 2.57716C26.2238 3.01837 26.9568 3.72434 27.2051 4.21029L27.418 4.62693L27.3997 16.7097L27.3815 28.7926L27.2106 29.1105C27.1166 29.2854 26.8328 29.6294 26.5798 29.875C25.0396 31.3701 21.7361 32.4761 17.4029 32.9474C16.5197 33.0434 12.6827 33.1209 11.7766 33.0611ZM17.9926 22.6764C17.9796 22.6454 17.4754 22.234 16.8721 21.7622C16.2688 21.2903 15.7491 20.8821 15.7174 20.855C15.6856 20.8279 15.7971 20.7319 15.9651 20.6417C16.1331 20.5515 16.4549 20.3006 16.6803 20.0842C17.3395 19.4512 17.6505 18.6693 17.6505 17.6451C17.6505 16.6368 17.3151 15.8233 16.6433 15.2023C15.9662 14.5763 15.1887 14.3073 14.0565 14.3073C12.3114 14.3073 10.9711 15.2399 10.5433 16.7517C10.3962 17.2718 10.397 18.3226 10.5449 18.7837C10.9307 19.9864 11.9814 20.86 13.289 21.0651C13.7315 21.1345 13.7914 21.1645 14.0931 21.4665C14.2724 21.646 14.6403 22.0043 14.9107 22.2628L15.4023 22.7326H16.7093C17.4281 22.7326 18.0056 22.7073 17.9926 22.6764ZM13.5106 19.3252C13.196 19.175 13.077 19.0584 12.8976 18.7244C12.7591 18.4664 12.7354 18.3197 12.7338 17.7099C12.7323 17.0903 12.7538 16.9564 12.8985 16.6874C13.1352 16.2471 13.4614 16.0387 13.9661 16.0053C14.6685 15.9586 15.074 16.2743 15.2865 17.033C15.547 17.9633 15.2605 18.9522 14.6354 19.2804C14.3074 19.4526 13.8182 19.4721 13.5106 19.3252ZM7.71773 21.0519C9.08797 20.8139 9.86581 20.0842 9.86581 19.0366C9.86581 18.1073 9.36363 17.5657 7.97572 16.9983C7.18121 16.6735 6.89343 16.4696 6.89343 16.2314C6.89343 16.034 7.16653 15.8176 7.48447 15.7633C7.79489 15.7102 8.61822 15.8412 9.10441 16.021L9.51196 16.1718V15.3457V14.5195L9.06963 14.4296C8.79626 14.3741 8.22183 14.3408 7.56575 14.3425C6.63643 14.3425 6.45446 14.3632 6.10473 14.4904C5.08317 14.8618 4.59841 15.4944 4.60616 16.4461C4.61342 17.337 5.12664 17.8927 6.40391 18.3927C7.15755 18.6876 7.45961 18.9123 7.45961 19.1777C7.45961 19.7418 6.43334 19.8112 5.34676 19.3206C5.04919 19.1863 4.78184 19.0654 4.75264 19.052C4.72345 19.0386 4.69957 19.4245 4.69957 19.9096C4.69957 20.7876 4.7006 20.7918 4.87417 20.8523C5.52784 21.0799 6.97257 21.1813 7.71773 21.0519ZM23.3829 20.2375V19.4922H22.1445H20.906V16.9321V14.3722H19.809H18.7121V17.6775V20.9828H21.0475H23.3829V20.2375ZM15.7397 7.17659C17.9196 7.03813 19.5535 6.77672 20.9914 6.33645C22.4239 5.89784 23.2701 5.36712 23.4594 4.78858C23.5323 4.56564 23.527 4.48108 23.4251 4.23665C22.9681 3.14082 20.4152 2.29888 16.5142 1.95752C14.8455 1.81147 11.8108 1.85882 10.2197 2.05564C7.79202 2.35603 5.82179 2.914 4.94575 3.54925C3.17361 4.83435 5.04766 6.2478 9.40582 6.91308C11.2955 7.20154 13.7437 7.3034 15.7397 7.17659Z" fill="#00BCF2"/>
</svg>
