<svg width="50" height="50" viewBox="0 0 28 28" fill="none" xmlns="http://www.w3.org/2000/svg">
<g clip-path="url(#clip0_83_45)">
<path d="M21.0898 0.561279H6.74609C3.25117 0.561279 0.417969 3.39448 0.417969 6.8894V21.2332C0.417969 24.7281 3.25117 27.5613 6.74609 27.5613H21.0898C24.5848 27.5613 27.418 24.7281 27.418 21.2332V6.8894C27.418 3.39448 24.5848 0.561279 21.0898 0.561279Z" fill="#007ACC"/>
<path d="M6.3887 14.1508L6.38013 15.2565H8.13727H9.89441V20.2494V25.2422H11.1373H12.3801V20.2494V15.2565H14.1373H15.8944V14.1722C15.8944 13.5722 15.8816 13.0708 15.8644 13.0579C15.8515 13.0408 13.713 13.0322 11.1201 13.0365L6.40156 13.0494L6.3887 14.1508Z" fill="white"/>
<path d="M22.2043 13.0181C22.8899 13.1896 23.4128 13.4939 23.8928 13.9909C24.1414 14.2567 24.5099 14.741 24.54 14.8567C24.5485 14.891 23.3742 15.6796 22.6628 16.121C22.6371 16.1382 22.5342 16.0267 22.4185 15.8553C22.0714 15.3496 21.7071 15.131 21.1499 15.0925C20.3314 15.0367 19.8042 15.4653 19.8085 16.181C19.8085 16.391 19.8385 16.5152 19.9242 16.6867C20.1042 17.0596 20.4385 17.2824 21.4886 17.7367C23.4214 18.5682 24.2485 19.1167 24.7628 19.8967C25.3371 20.7667 25.4657 22.1553 25.0757 23.1881C24.6471 24.311 23.5842 25.0738 22.0885 25.3267C21.6257 25.4081 20.5285 25.3953 20.0314 25.3053C18.9471 25.1124 17.9185 24.5767 17.2843 23.8739C17.0357 23.5996 16.5514 22.8839 16.5814 22.8324C16.5942 22.8153 16.7057 22.7468 16.8299 22.6739C16.9499 22.6053 17.4043 22.3439 17.8328 22.0953L18.6085 21.6452L18.7714 21.8853C18.9985 22.2324 19.4956 22.7081 19.7957 22.8667C20.657 23.321 21.84 23.2567 22.4228 22.7339C22.6714 22.5067 22.7742 22.271 22.7742 21.9239C22.7742 21.611 22.7356 21.4738 22.5728 21.2381C22.3628 20.9382 21.9343 20.6853 20.7171 20.1581C19.3242 19.5581 18.7242 19.1853 18.1757 18.5938C17.8585 18.251 17.5585 17.7024 17.4342 17.2438C17.3314 16.8624 17.3057 15.9067 17.3871 15.521C17.6742 14.1753 18.6899 13.2367 20.1556 12.9581C20.6314 12.8681 21.737 12.9024 22.2043 13.0181Z" fill="white"/>
</g>
<defs>
<clipPath id="clip0_83_45">
<rect width="27" height="27" fill="white" transform="translate(0.417969 0.561279)"/>
</clipPath>
</defs>
</svg>
