<svg width="287" height="216" viewBox="0 0 287 216" fill="none" xmlns="http://www.w3.org/2000/svg">
<path d="M49.9143 78.9284C50.261 77.7729 52.1646 76.7146 53.0345 76.0095C60.614 69.8661 67.1097 62.652 73.2401 55.0742C84.4333 41.2381 91.1419 25.2955 94.3012 7.91934C95.8687 -0.701682 92.7656 25.3939 91.332 34.0382C87.7289 55.7653 83.2952 77.2343 78.0462 98.6307C74.5485 112.888 70.5288 127.011 67.6288 141.407C67.1372 143.848 66.7692 148.033 65.7668 150.038" stroke="black" stroke-width="12" stroke-linecap="round"/>
<path d="M28.1738 70.3228C28.6646 67.8688 32.087 65.9078 33.9612 64.636C44.2055 57.6845 56.6797 52.4437 68.4341 48.8087C89.1925 42.3892 111.179 40.8905 132.8 40.5302C139.024 40.4265 147.171 40.0663 152.024 44.8078C155.714 48.4119 155.098 54.301 154.138 58.8989C152.004 69.126 141.561 78.1475 134.335 84.7661C118.16 99.5823 98.6449 110.128 78.4488 118.333" stroke="black" stroke-width="12" stroke-linecap="round"/>
<path d="M115.589 12.3481C115.589 16.2396 115.574 20.1131 115.287 23.9985C113.947 42.1487 112.61 60.2489 111.613 78.4253C110.559 97.6598 107.762 116.766 105.197 135.846C105.059 136.87 103.817 145.509 104.266 145.509" stroke="black" stroke-width="12" stroke-linecap="round"/>
<path d="M106.53 129.204C107.074 127.869 107.829 127.019 108.946 126.083C112.744 122.902 116.808 119.992 120.772 117.025C137.543 104.476 156.873 94.5311 175.577 85.2444C185.525 80.3045 195.916 76.089 205.596 70.6249C206.505 70.1117 210.532 68.5112 207.533 68.5112" stroke="black" stroke-width="12" stroke-linecap="round"/>
<path d="M107.436 127.845C128.8 127.845 149.731 128.163 170.997 130.764C198.904 134.176 226.574 139.544 253.883 146.213C259.145 147.499 264.336 148.887 269.333 150.994C270.212 151.365 270.936 151.667 271.849 151.85" stroke="black" stroke-width="12" stroke-linecap="round"/>
<path d="M14.5005 137C11.8487 138.391 9.15092 137.112 6.50053 156C4.95668 167 7.40206 178.729 16.5 190C21.5773 196.29 29.6372 201.001 37.5766 204.094C44.2396 206.69 53.6556 207.946 60.5445 208.522C69.2241 209.248 83.3943 209.434 92.1818 209.099C115.692 208.205 138.759 198.814 157.49 185.711C167.307 178.844 176.131 170.46 183.232 161.091C192.11 149.376 197.673 135.406 203.118 122.091C212.112 100.1 218.226 77.1297 223.518 54.1406C224.992 47.7363 226.212 41.3321 227.442 34.8911C227.477 34.704 227.483 34.5065 227.565 34.3328C227.746 33.9515 227.606 35.1668 227.606 35.584C227.606 40.1748 227.808 44.7606 227.996 49.3474C228.629 64.756 229.35 80.1987 230.996 95.5463C231.612 101.294 232.319 107.14 233.933 112.736C234.493 114.674 235.358 116.934 237.344 118.01C242.465 120.786 247.457 101.854 248.026 100.07C252.953 84.6347 256.127 68.7199 259.736 52.9856C260.562 49.3858 261.325 45.6699 262.571 42.1674C263.349 39.9806 263.342 45.1993 263.352 45.305C264.528 58.1314 266.356 70.9452 269.145 83.5538C270.915 91.5539 273.303 99.7804 277.034 107.192C277.628 108.373 278.393 110.696 280.116 110.696" stroke="black" stroke-width="12" stroke-linecap="round"/>
</svg>
