<svg xmlns="http://www.w3.org/2000/svg" width="30" height="30" fill="none" viewBox="0 0 151 151">
  <path fill="#4285F4" d="M.63257 75.673c0 41.654 33.76703 75.421 75.42083 75.421 41.6536 0 75.4206-33.767 75.4206-75.421 0-41.6538-33.767-75.42092-75.4206-75.42092C34.3996.25208.63257 34.0192.63257 75.673Z"/>
  <path fill="#fff" d="M109.414 47.0625c-.564-2.548-2.857-4.3862-5.46-4.3862H48.171c-2.6026 0-4.8958 1.8382-5.46 4.3862l-4.368 19.7653v.1638c0 3.8038 2.0202 7.1526 5.0414 9.0272v26.8992c0 3.076 2.4934 5.57 5.5692 5.57h54.4004c3.075 0 5.569-2.494 5.569-5.57V75.9096c2.912-1.8928 4.859-5.187 4.859-8.918v-.1638l-4.368-19.7653ZM56.4157 66.9006v.091c0 4.1132-3.3488 7.4438-7.4439 7.4438-4.0586 0-7.3528-3.2578-7.4438-7.28l4.277-19.4195c.2366-1.092 1.2376-1.8928 2.366-1.8928h10.8473l-2.6026 21.0575Zm18.0544.091c0 4.1132-3.3488 7.4438-7.4438 7.4438-4.0768 0-7.4074-3.2942-7.4438-7.3528l2.6208-21.2395h12.2668v21.1485Zm3.1668 0V45.8431h12.2669l2.6208 21.2395c-.0546 4.0586-3.367 7.3528-7.4438 7.3528-4.0951.0182-7.4439-3.3306-7.4439-7.4438ZM91.833 101.117c-4.914 0-8.8817-3.968-8.8817-8.882s3.9677-8.8816 8.8817-8.8816c2.4024 0 4.4044.8736 5.9514 2.3296l-2.4206 2.3114c-.6552-.637-1.82-1.365-3.549-1.365-3.0394 0-5.5146 2.5116-5.5146 5.6056s2.4752 5.6056 5.5146 5.6056c3.5126 0 4.8412-2.5298 5.0414-3.8402h-5.0414V90.961h8.4082c.073.4368.146.8918.146 1.4742-.018 5.0778-3.4036 8.6818-8.536 8.6818Zm11.32-26.6634c-4.1128 0-7.4434-3.3488-7.4434-7.4438v-.091L93.107 45.8431h10.847c1.129 0 2.13.8008 2.366 1.8928l4.277 19.4195c-.091 4.0404-3.385 7.2982-7.444 7.2982Z"/>
</svg>
