<svg xmlns="http://www.w3.org/2000/svg" width="50" height="50" fill="none">
  <g stroke="#4C4CFF" stroke-linecap="round" stroke-linejoin="round" filter="url(#a)">
    <path d="M40.5 37.6c.5-.6 0-1.5-.7-1.5-10.1-.1-18.6 0-29 .7-.8 0-1.2 1-.7 1.5a20 20 0 0 0 30.4-.7ZM7.6 15.1c-.3.6.2 1.4 1 1.3 11.6-1.4 20.1-1.8 32.2-1 .8 0 1.3-.8.9-1.5a20 20 0 0 0-34 1.2Z"/>
  </g>
  <g stroke="#4C4CFF" stroke-linecap="round" stroke-linejoin="round" filter="url(#b)">
    <path d="M40.5 37.6c.5-.6 0-1.5-.7-1.5-10.1-.1-18.6 0-29 .7-.8 0-1.2 1-.7 1.5a20 20 0 0 0 30.4-.7ZM7.6 15.1c-.3.6.2 1.4 1 1.3 11.6-1.4 20.1-1.8 32.2-1 .8 0 1.3-.8.9-1.5a20 20 0 0 0-34 1.2Z"/>
  </g>
  <path stroke="#4C4CFF" stroke-linecap="round" stroke-linejoin="round" d="M40.5 37.6c.5-.6 0-1.5-.7-1.5-10.1-.1-18.6 0-29 .7-.8 0-1.2 1-.7 1.5a20 20 0 0 0 30.4-.7ZM7.6 15.1c-.3.6.2 1.4 1 1.3 11.6-1.4 20.1-1.8 32.2-1 .8 0 1.3-.8.9-1.5a20 20 0 0 0-34 1.2Z"/>
  <path stroke="#fff" stroke-linecap="round" stroke-linejoin="round" stroke-width=".5" d="M40.5 37.6c.5-.6 0-1.5-.7-1.5-10.1-.1-18.6 0-29 .7-.8 0-1.2 1-.7 1.5a20 20 0 0 0 30.4-.7ZM7.6 15.1c-.3.6.2 1.4 1 1.3 11.6-1.4 20.1-1.8 32.2-1 .8 0 1.3-.8.9-1.5a20 20 0 0 0-34 1.2Z"/>
  <g filter="url(#c)">
    <path stroke="#E33CD5" stroke-linecap="round" stroke-linejoin="round" d="M44.9 27.5c0-1-.7-2-1.8-2-12.9-1.1-23-1.3-36.2-.6-1 0-2 1-1.8 2 .1 1.5.4 3 .9 4.3.3.8 1 1.3 1.9 1.3a517 517 0 0 1 34.3-.1c.8 0 1.6-.5 1.9-1.3l.8-3.6Z"/>
  </g>
  <g filter="url(#d)">
    <path stroke="#E33CD5" stroke-linecap="round" stroke-linejoin="round" d="M44.9 27.5c0-1-.7-2-1.8-2-12.9-1.1-23-1.3-36.2-.6-1 0-2 1-1.8 2 .1 1.5.4 3 .9 4.3.3.8 1 1.3 1.9 1.3a517 517 0 0 1 34.3-.1c.8 0 1.6-.5 1.9-1.3l.8-3.6Z"/>
  </g>
  <path stroke="#E33CD5" stroke-linecap="round" stroke-linejoin="round" d="M44.9 27.5c0-1-.7-2-1.8-2-12.9-1.1-23-1.3-36.2-.6-1 0-2 1-1.8 2 .1 1.5.4 3 .9 4.3.3.8 1 1.3 1.9 1.3a517 517 0 0 1 34.3-.1c.8 0 1.6-.5 1.9-1.3l.8-3.6Z"/>
  <path stroke="#fff" stroke-linecap="round" stroke-linejoin="round" stroke-width=".5" d="M44.9 27.5c0-1-.7-2-1.8-2-12.9-1.1-23-1.3-36.2-.6-1 0-2 1-1.8 2 .1 1.5.4 3 .9 4.3.3.8 1 1.3 1.9 1.3a517 517 0 0 1 34.3-.1c.8 0 1.6-.5 1.9-1.3l.8-3.6Z"/>
  <g filter="url(#e)">
    <path stroke="#0CC" stroke-linecap="round" stroke-linejoin="round" d="M5 20.5c2.7-2 5.3-2 8 0s5.3 2 8 0 5.3-2 8 0 5.3 2 8 0 5.3-2 8 0"/>
  </g>
  <g filter="url(#f)">
    <path stroke="#0CC" stroke-linecap="round" stroke-linejoin="round" d="M5 20.5c2.7-2 5.3-2 8 0s5.3 2 8 0 5.3-2 8 0 5.3 2 8 0 5.3-2 8 0"/>
  </g>
  <path stroke="#0CC" stroke-linecap="round" stroke-linejoin="round" d="M5 20.5c2.7-2 5.3-2 8 0s5.3 2 8 0 5.3-2 8 0 5.3 2 8 0 5.3-2 8 0"/>
  <path stroke="#fff" stroke-linecap="round" stroke-linejoin="round" stroke-width=".5" d="M5 20.5c2.7-2 5.3-2 8 0s5.3 2 8 0 5.3-2 8 0 5.3 2 8 0 5.3-2 8 0"/>
  <g stroke="#4C4CFF" filter="url(#g)">
    <ellipse cx="1" cy=".8" rx="1" ry=".8" transform="matrix(.9 .5 .5 -.9 17 40.2)"/>
    <ellipse cx="33.7" cy="11.4" rx="1.5" ry="1" transform="rotate(15 33.7 11.4)"/>
    <ellipse cx="1" cy=".8" rx="1" ry=".8" transform="matrix(1 -.3 -.3 -1 30.4 41)"/>
    <ellipse cx="23.5" cy="12" rx="1.5" ry="1" transform="rotate(180 23.5 12)"/>
    <ellipse cx="27.7" cy="8.4" rx="1.5" ry="1" transform="rotate(15 27.7 8.4)"/>
    <ellipse cx="1" cy=".8" rx="1" ry=".8" transform="matrix(1 0 0 -1 24 42.5)"/>
    <ellipse cx="16.8" cy="10.6" rx="1.5" ry="1" transform="rotate(-28 16.8 10.6)"/>
  </g>
  <g stroke="#4C4CFF" filter="url(#h)">
    <ellipse cx="1" cy=".8" rx="1" ry=".8" transform="matrix(.9 .5 .5 -.9 17 40.2)"/>
    <ellipse cx="33.7" cy="11.4" rx="1.5" ry="1" transform="rotate(15 33.7 11.4)"/>
    <ellipse cx="1" cy=".8" rx="1" ry=".8" transform="matrix(1 -.3 -.3 -1 30.4 41)"/>
    <ellipse cx="23.5" cy="12" rx="1.5" ry="1" transform="rotate(180 23.5 12)"/>
    <ellipse cx="27.7" cy="8.4" rx="1.5" ry="1" transform="rotate(15 27.7 8.4)"/>
    <ellipse cx="1" cy=".8" rx="1" ry=".8" transform="matrix(1 0 0 -1 24 42.5)"/>
    <ellipse cx="16.8" cy="10.6" rx="1.5" ry="1" transform="rotate(-28 16.8 10.6)"/>
  </g>
  <ellipse cx="1" cy=".8" stroke="#4C4CFF" rx="1" ry=".8" transform="matrix(.9 .5 .5 -.9 17 40.2)"/>
  <ellipse cx="33.7" cy="11.4" stroke="#4C4CFF" rx="1.5" ry="1" transform="rotate(15 33.7 11.4)"/>
  <ellipse cx="1" cy=".8" stroke="#4C4CFF" rx="1" ry=".8" transform="matrix(1 -.3 -.3 -1 30.4 41)"/>
  <ellipse cx="23.5" cy="12" stroke="#4C4CFF" rx="1.5" ry="1" transform="rotate(180 23.5 12)"/>
  <ellipse cx="27.7" cy="8.4" stroke="#4C4CFF" rx="1.5" ry="1" transform="rotate(15 27.7 8.4)"/>
  <ellipse cx="1" cy=".8" stroke="#4C4CFF" rx="1" ry=".8" transform="matrix(1 0 0 -1 24 42.5)"/>
  <ellipse cx="16.8" cy="10.6" stroke="#4C4CFF" rx="1.5" ry="1" transform="rotate(-28 16.8 10.6)"/>
  <ellipse cx="1" cy=".8" stroke="#fff" stroke-width=".5" rx="1" ry=".8" transform="matrix(.9 .5 .5 -.9 17 40.2)"/>
  <ellipse cx="33.7" cy="11.4" stroke="#fff" stroke-width=".5" rx="1.5" ry="1" transform="rotate(15 33.7 11.4)"/>
  <ellipse cx="1" cy=".8" stroke="#fff" stroke-width=".5" rx="1" ry=".8" transform="matrix(1 -.3 -.3 -1 30.4 41)"/>
  <ellipse cx="23.5" cy="12" stroke="#fff" stroke-width=".5" rx="1.5" ry="1" transform="rotate(180 23.5 12)"/>
  <ellipse cx="27.7" cy="8.4" stroke="#fff" stroke-width=".5" rx="1.5" ry="1" transform="rotate(15 27.7 8.4)"/>
  <ellipse cx="1" cy=".8" stroke="#fff" stroke-width=".5" rx="1" ry=".8" transform="matrix(1 0 0 -1 24 42.5)"/>
  <ellipse cx="16.8" cy="10.6" stroke="#fff" stroke-width=".5" rx="1.5" ry="1" transform="rotate(-28 16.8 10.6)"/>
  <defs>
    <filter id="a" width="43.3" height="49" x="3" y=".5" color-interpolation-filters="sRGB" filterUnits="userSpaceOnUse">
      <feFlood flood-opacity="0" result="BackgroundImageFix"/>
      <feBlend in="SourceGraphic" in2="BackgroundImageFix" result="shape"/>
      <feGaussianBlur result="effect1_foregroundBlur_143960_2362" stdDeviation="2"/>
    </filter>
    <filter id="b" width="43.3" height="49" x="3" y=".5" color-interpolation-filters="sRGB" filterUnits="userSpaceOnUse">
      <feFlood flood-opacity="0" result="BackgroundImageFix"/>
      <feBlend in="SourceGraphic" in2="BackgroundImageFix" result="shape"/>
      <feGaussianBlur result="effect1_foregroundBlur_143960_2362" stdDeviation="2"/>
    </filter>
    <filter id="c" width="48.8" height="17" x=".6" y="20" color-interpolation-filters="sRGB" filterUnits="userSpaceOnUse">
      <feFlood flood-opacity="0" result="BackgroundImageFix"/>
      <feBlend in="SourceGraphic" in2="BackgroundImageFix" result="shape"/>
      <feGaussianBlur result="effect1_foregroundBlur_143960_2362" stdDeviation="2"/>
    </filter>
    <filter id="d" width="48.8" height="17" x=".6" y="20" color-interpolation-filters="sRGB" filterUnits="userSpaceOnUse">
      <feFlood flood-opacity="0" result="BackgroundImageFix"/>
      <feBlend in="SourceGraphic" in2="BackgroundImageFix" result="shape"/>
      <feGaussianBlur result="effect1_foregroundBlur_143960_2362" stdDeviation="2"/>
    </filter>
    <filter id="e" width="49" height="12" x=".5" y="14.5" color-interpolation-filters="sRGB" filterUnits="userSpaceOnUse">
      <feFlood flood-opacity="0" result="BackgroundImageFix"/>
      <feBlend in="SourceGraphic" in2="BackgroundImageFix" result="shape"/>
      <feGaussianBlur result="effect1_foregroundBlur_143960_2362" stdDeviation="2"/>
    </filter>
    <filter id="f" width="49" height="12" x=".5" y="14.5" color-interpolation-filters="sRGB" filterUnits="userSpaceOnUse">
      <feFlood flood-opacity="0" result="BackgroundImageFix"/>
      <feBlend in="SourceGraphic" in2="BackgroundImageFix" result="shape"/>
      <feGaussianBlur result="effect1_foregroundBlur_143960_2362" stdDeviation="2"/>
    </filter>
    <filter id="g" width="28.8" height="44.2" x="10.9" y="2.8" color-interpolation-filters="sRGB" filterUnits="userSpaceOnUse">
      <feFlood flood-opacity="0" result="BackgroundImageFix"/>
      <feBlend in="SourceGraphic" in2="BackgroundImageFix" result="shape"/>
      <feGaussianBlur result="effect1_foregroundBlur_143960_2362" stdDeviation="2"/>
    </filter>
    <filter id="h" width="28.8" height="44.2" x="10.9" y="2.8" color-interpolation-filters="sRGB" filterUnits="userSpaceOnUse">
      <feFlood flood-opacity="0" result="BackgroundImageFix"/>
      <feBlend in="SourceGraphic" in2="BackgroundImageFix" result="shape"/>
      <feGaussianBlur result="effect1_foregroundBlur_143960_2362" stdDeviation="2"/>
    </filter>
  </defs>
</svg>
