<svg xmlns="http://www.w3.org/2000/svg" width="30" height="30" fill="none" viewBox="0 0 151 151">
  <path fill="#08C" d="M.92602 76.1242c0 41.6538 33.76708 75.4208 75.42088 75.4208 41.6541 0 75.4211-33.767 75.4211-75.4208S118.001.70334 76.3469.70334C34.6931.70334.92602 34.4704.92602 76.1242Z"/>
  <path fill="#fff" d="M39.1074 74.7492c20.2456-8.8207 33.7458-14.6358 40.5007-17.4454 19.2865-8.022 23.2939-9.4155 25.9059-9.462.575-.0096 1.859.1328 2.691.808.703.5701.896 1.3402.989 1.8807.092.5405.208 1.7718.116 2.7339-1.045 10.9815-5.568 37.6305-7.868 49.9296-.974 5.205-2.8906 6.95-4.7464 7.12-4.033.371-7.0954-2.665-11.0016-5.225-6.1123-4.007-9.5654-6.5014-15.4985-10.4112-6.8568-4.5185-2.4118-7.0019 1.4958-11.0606 1.0226-1.0621 18.7921-17.2248 19.136-18.691.0431-.1834.083-.8669-.3231-1.2279-.4061-.3609-1.0054-.2375-1.4379-.1393-.6131.1391-10.3776 6.5931-29.2937 19.362-2.7716 1.9033-5.2821 2.8306-7.5314 2.782-2.4797-.0536-7.2495-1.4021-10.7955-2.5547-4.3492-1.4138-7.8058-2.1612-7.5048-4.5622.1568-1.2506 1.8789-2.5296 5.1665-3.8369Z"/>
</svg>
